<svg xmlns="http://www.w3.org/2000/svg" width="32" height="32"><path d="M31.976 6.894c0-.037.025-.072.023-.108l-9.765 9.409 9.754 9.109c.006-.065-.012-.131-.012-.197V6.894zM20.744 17.643l-3.986 3.835a1.04 1.04 0 01-1.434.011l-3.976-3.705-9.817 9.463c.239.086.495.152.763.152h27.481c.398 0 .772-.121 1.097-.302l-10.128-9.455z"/><path d="M16.023 19.291L30.926 4.935a2.253 2.253 0 00-1.151-.335H2.294a2.27 2.27 0 00-1.442.537l15.171 14.154zM0 7.243v17.863c0 .205.047.403.098.592l9.695-9.337-9.794-9.118z"/></svg>