<svg width="10" height="10" viewBox="0 0 10 10" fill="none" xmlns="http://www.w3.org/2000/svg">
<path fill-rule="evenodd" clip-rule="evenodd" d="M0.130208 9.84416C0.0434023 9.77489 0 9.67965 0 9.55844C0 9.43723 0.0434023 9.34199 0.130208 9.27273L8.56771 0.831169H5.41667C5.29514 0.831169 5.19531 0.792208 5.11719 0.714286C5.03906 0.636363 5 0.536797 5 0.415584C5 0.294372 5.03906 0.194806 5.11719 0.116883C5.19531 0.0389606 5.29514 0 5.41667 0H9.58333C9.63542 0 9.6875 0.00865792 9.73958 0.025974C9.84375 0.0779223 9.92187 0.155844 9.97396 0.25974C9.99132 0.311689 10 0.363636 10 0.415584V4.57143C10 4.69264 9.96094 4.79221 9.88281 4.87013C9.80469 4.94805 9.70486 4.98701 9.58333 4.98701C9.4618 4.98701 9.36198 4.94805 9.28385 4.87013C9.20573 4.79221 9.16667 4.69264 9.16667 4.57143V1.42857L0.703125 9.84416C0.512152 10.0519 0.321182 10.0519 0.130208 9.84416Z" fill="white"/>
</svg>
