<svg xmlns="http://www.w3.org/2000/svg" xmlns:xlink="http://www.w3.org/1999/xlink" width="1342" height="304" viewBox="0 0 1342 304">
  <defs>
    <style>
      .cls-1 {
        fill-rule: evenodd;
        filter: url(#filter);
      }

      .cls-2 {
        filter: url(#filter-2);
      }

      .cls-3 {
        filter: url(#filter-3);
      }

      .cls-4 {
        filter: url(#filter-4);
      }

      .cls-5 {
        filter: url(#filter-5);
      }
    </style>
    <filter id="filter" x="263.531" y="40.719" width="813.589" height="222.25" filterUnits="userSpaceOnUse">
      <feFlood result="flood" flood-color="#fff"/>
      <feComposite result="composite" operator="in" in2="SourceGraphic"/>
      <feBlend result="blend" in2="SourceGraphic"/>
    </filter>
    <filter id="filter-2" x="1327" y="0" width="15" height="304" filterUnits="userSpaceOnUse">
      <feFlood result="flood" flood-color="#fff"/>
      <feComposite result="composite" operator="in" in2="SourceGraphic"/>
      <feBlend result="blend" in2="SourceGraphic"/>
    </filter>
    <filter id="filter-3" x="-3" y="0" width="15" height="304" filterUnits="userSpaceOnUse">
      <feFlood result="flood" flood-color="#fff"/>
      <feComposite result="composite" operator="in" in2="SourceGraphic"/>
      <feBlend result="blend" in2="SourceGraphic"/>
    </filter>
    <filter id="filter-4" x="22" y="47" width="15" height="210" filterUnits="userSpaceOnUse">
      <feFlood result="flood" flood-color="#fff"/>
      <feComposite result="composite" operator="in" in2="SourceGraphic"/>
      <feBlend result="blend" in2="SourceGraphic"/>
    </filter>
    <filter id="filter-5" x="1302" y="47" width="15" height="210" filterUnits="userSpaceOnUse">
      <feFlood result="flood" flood-color="#fff"/>
      <feComposite result="composite" operator="in" in2="SourceGraphic"/>
      <feBlend result="blend" in2="SourceGraphic"/>
    </filter>
  </defs>
  <path id="logoтип" class="cls-1" d="M263.54,182.68c0,21.294,8.322,31.329,24.965,31.329,11.5,0,20.07-3.671,25.944-8.322l-4.405-14.93c-3.671,2.448-8.567,4.895-13.951,4.895-9.3,0-12.972-6.853-12.972-21.783V40.722H263.54V182.68Zm63.639-25.7c0,33.042,23.5,57.518,58.741,57.518s58.742-24.476,58.742-57.518-23.5-57.518-58.742-57.518S327.179,123.939,327.179,156.981Zm20.8,0c0-23.252,16.4-39.161,37.937-39.161,22.028,0,37.937,16.154,37.937,39.161,0,23.5-15.909,39.161-37.937,39.161S347.983,179.988,347.983,156.981ZM457.638,227.96c0,23.986,23.986,35,56.049,35s56.049-11.5,56.049-35c0-23.986-23.986-35.489-56.049-35.489-2.2,0-4.406.244-6.609,0.244a12.406,12.406,0,0,1-2.2-7.342,13.693,13.693,0,0,1,1.223-6.119c2.448,0.245,4.9.245,7.343,0.245,27.168,0,45.035-17.623,45.035-39.651a36.6,36.6,0,0,0-5.14-19.091l20.805-5.14-0.49-15.909-32.308,7.832c-7.587-5.14-17.133-8.077-27.9-8.077-27.657,0-45.035,18.357-45.035,40.385,0,16.154,9.056,29.86,24.72,36.224a15.064,15.064,0,0,0-2.937,9.3c0,3.182.735,6.608,2.693,9.056C471.834,198.834,457.638,210.093,457.638,227.96Zm18.356,0c0-12.238,14.2-19.58,37.693-19.58s37.692,7.342,37.692,19.58c0,12.483-14.93,19.091-37.692,19.091S475.994,240.2,475.994,227.96Zm10.77-88.112c0-13.706,10.524-24.476,26.678-24.476,16.4,0,26.679,10.77,26.679,24.476,0,14.2-11.259,23.741-26.679,23.741C497.288,163.589,486.764,153.554,486.764,139.848Zm99.619,17.133c0,33.042,23.5,57.518,58.741,57.518s58.742-24.476,58.742-57.518-23.5-57.518-58.742-57.518S586.383,123.939,586.383,156.981Zm20.8,0c0-23.252,16.4-39.161,37.937-39.161,22.028,0,37.937,16.154,37.937,39.161,0,23.5-15.909,39.161-37.937,39.161S607.187,179.988,607.187,156.981Zm110.878-35.49H758.45v90.56h19.581v-90.56h40.384v-19.58H718.065v19.58Zm141.227,90.56,63.637-81.993v81.993h19.58V101.911h-19.58L859.292,183.9V101.911h-19.58v110.14h19.58Zm198.258,0h19.58V101.911H978v110.14h19.58V120.268h59.967v91.783Z"/>
  <rect id="Прямоугольник_1" data-name="Прямоугольник 1" class="cls-2" x="1327" width="15" height="304"/>
  <rect id="Прямоугольник_1_копия" data-name="Прямоугольник 1 копия" class="cls-3" x="-3" width="15" height="304"/>
  <rect id="Прямоугольник_1_копия_2" data-name="Прямоугольник 1 копия 2" class="cls-4" x="22" y="47" width="15" height="210"/>
  <rect id="Прямоугольник_1_копия_3" data-name="Прямоугольник 1 копия 3" class="cls-5" x="1302" y="47" width="15" height="210"/>
</svg>
