<svg xmlns="http://www.w3.org/2000/svg" width="650" height="346" viewBox="0 0 650 346">
  <defs>
    <style>
      .cls-1 {
        fill-rule: evenodd;
      }
    </style>
  </defs>
  <path id="logoтип" class="cls-1" d="M13.47,196.748c0,16.276,6.361,23.946,19.082,23.946,8.793,0,15.341-2.806,19.831-6.361l-3.367-11.411c-2.806,1.87-6.548,3.741-10.664,3.741-7.109,0-9.915-5.238-9.915-16.65V88.241H13.47V196.748ZM62.112,177.1c0,25.256,17.96,43.964,44.9,43.964s44.9-18.708,44.9-43.964-17.96-43.963-44.9-43.963S62.112,151.849,62.112,177.1Zm15.9,0c0-17.772,12.534-29.932,29-29.932,16.837,0,29,12.347,29,29.932,0,17.96-12.16,29.933-29,29.933S78.014,194.69,78.014,177.1Zm83.815,54.254c0,18.334,18.334,26.752,42.842,26.752s42.841-8.793,42.841-26.752c0-18.334-18.334-27.127-42.841-27.127-1.684,0-3.368.187-5.052,0.187a9.481,9.481,0,0,1-1.683-5.612,10.468,10.468,0,0,1,.935-4.677c1.871,0.187,3.742.187,5.612,0.187,20.766,0,34.423-13.47,34.423-30.307a27.974,27.974,0,0,0-3.928-14.592l15.9-3.929-0.374-12.16-24.694,5.986a37.7,37.7,0,0,0-21.328-6.173c-21.14,0-34.422,14.031-34.422,30.868,0,12.347,6.922,22.824,18.895,27.688a11.51,11.51,0,0,0-2.245,7.109,11.2,11.2,0,0,0,2.058,6.922C172.68,209.1,161.829,217.7,161.829,231.358Zm14.031,0c0-9.354,10.851-14.967,28.811-14.967s28.81,5.613,28.81,14.967c0,9.541-11.412,14.592-28.81,14.592S175.86,240.712,175.86,231.358Zm8.232-67.349c0-10.477,8.044-18.708,20.391-18.708,12.535,0,20.392,8.231,20.392,18.708,0,10.85-8.6,18.147-20.392,18.147C192.136,182.156,184.092,174.485,184.092,164.009Zm76.144,13.1c0,25.256,17.96,43.964,44.9,43.964s44.9-18.708,44.9-43.964-17.96-43.963-44.9-43.963S260.236,151.849,260.236,177.1Zm15.9,0c0-17.772,12.534-29.932,29-29.932,16.838,0,29,12.347,29,29.932,0,17.96-12.16,29.933-29,29.933S276.138,194.69,276.138,177.1Zm84.75-27.126h30.869V219.2h14.966v-69.22h30.868V135.011h-76.7v14.967ZM468.836,219.2l48.64-62.672V219.2h14.967V135.011H517.476l-48.64,62.672V135.011H453.869V219.2h14.967Zm151.538,0H635.34V135.011H559.573V219.2h14.966V149.042h45.835V219.2Z"/>
  <rect id="Прямоугольник_1_копия" data-name="Прямоугольник 1 копия" width="649" height="10"/>
  <rect id="Прямоугольник_1_копия_2" data-name="Прямоугольник 1 копия 2" x="147" y="20" width="354" height="10"/>
  <rect id="Прямоугольник_1_копия_3" data-name="Прямоугольник 1 копия 3" y="336" width="649" height="10"/>
  <rect id="Прямоугольник_1_копия_3-2" data-name="Прямоугольник 1 копия 3" x="148" y="316" width="354" height="10"/>
</svg>
