<svg width="81" height="50" viewBox="0 0 81 50" fill="none" xmlns="http://www.w3.org/2000/svg">
<path fill-rule="evenodd" clip-rule="evenodd" d="M39.2969 0.195324C38.3417 0.660779 37.8111 1.79533 38.0427 2.8232C38.1777 3.41472 38.2935 3.61836 38.747 4.06442C39.2004 4.52018 39.6249 4.69472 40.2617 4.68502C41.0722 4.68502 41.8633 4.14199 42.2396 3.33714C42.394 3.00745 42.4229 2.87169 42.4229 2.32866C42.4229 1.78563 42.394 1.64017 42.2492 1.32987C41.9984 0.796537 41.6703 0.447446 41.1783 0.214719C40.8117 0.0304762 40.6862 0.00138503 40.2328 0.00138503C39.7793 -0.00831195 39.6346 0.0304758 39.2969 0.195324ZM40.5222 0.563809C40.6091 0.621991 40.7152 0.767446 40.7634 0.893507C40.966 1.36866 40.6187 1.8826 40.0977 1.8826C39.4223 1.8826 39.1136 1.00017 39.6442 0.583204C39.8565 0.428052 40.3003 0.418355 40.5222 0.563809Z" fill="#F7654A"/>
<path fill-rule="evenodd" clip-rule="evenodd" d="M16.7491 2.72659C16.1219 2.83326 15.4948 3.32781 15.2247 3.95811C14.8484 4.82114 15.0896 5.96538 15.765 6.5472C16.2088 6.91569 16.4789 7.02235 17.0867 7.02235C17.5885 7.02235 17.6849 7.00296 18.0033 6.81872C18.3989 6.59569 18.7269 6.2369 18.9488 5.79084C19.0743 5.53872 19.1032 5.37387 19.1032 4.85023C19.1032 4.28781 19.0839 4.18114 18.9199 3.88053C18.4857 3.04659 17.6174 2.58114 16.7491 2.72659ZM17.849 3.31811C18.4664 3.69629 18.1963 4.65629 17.463 4.65629C17.0867 4.65629 16.7491 4.3169 16.7491 3.93872C16.7491 3.3472 17.3472 3.00781 17.849 3.31811Z" fill="#F7654A"/>
<path fill-rule="evenodd" clip-rule="evenodd" d="M62.9925 2.72617C61.8926 2.9492 61.0822 4.17102 61.3137 5.24738C61.4778 5.98435 61.8733 6.52738 62.5101 6.85708C62.7513 6.99284 62.9057 7.01223 63.3688 7.01223C63.8608 7.01223 63.967 6.99284 64.2468 6.82799C65.3852 6.1589 65.7422 4.75284 65.0572 3.65708C64.6327 2.97829 63.7451 2.58072 62.9925 2.72617ZM63.3977 3.2789C63.6775 3.39526 63.8608 3.77344 63.8126 4.08375C63.7258 4.52981 63.1662 4.79163 62.761 4.57829C62.1145 4.2486 62.3461 3.21102 63.0697 3.19163C63.1276 3.19163 63.2723 3.23041 63.3977 3.2789Z" fill="#F7654A"/>
<path fill-rule="evenodd" clip-rule="evenodd" d="M40.1072 6.72114C40.0107 6.87629 38.2741 10.1345 37.4154 11.7733C37.1742 12.229 36.8655 12.8011 36.74 13.0339C36.605 13.2763 36.3252 13.7902 36.1129 14.1975C35.891 14.5951 35.6112 15.1187 35.4858 15.3611C33.8167 18.4351 32.8422 20.3066 32.8615 20.3939C32.8904 20.5296 34.5113 22.2751 34.6174 22.2751C34.656 22.2848 34.8201 22.0521 34.9744 21.7611C35.1288 21.4799 35.3121 21.1405 35.3893 21.0145C35.4665 20.8884 35.6787 20.4908 35.8621 20.1515C36.055 19.8024 36.2866 19.3854 36.3734 19.2205C36.8076 18.4448 37.1838 17.7466 37.4058 17.3587C37.5312 17.1163 37.7627 16.6993 37.9171 16.4278C38.0715 16.1563 38.4478 15.4775 38.7468 14.9345C39.4512 13.6545 39.5283 13.509 39.866 12.8884C40.0204 12.6072 40.1844 12.3745 40.223 12.3745C40.2712 12.3745 40.6379 13.0048 41.0527 13.7611C41.4676 14.5175 41.9404 15.3611 42.0947 15.6424C42.3842 16.1563 43.3104 17.8339 43.5999 18.3672C44.5454 20.1127 45.7224 22.2072 45.7803 22.2557C45.8286 22.3042 46.1373 22.0133 46.7355 21.3927C47.2275 20.8787 47.6231 20.423 47.6231 20.3842C47.6231 20.3454 47.4977 20.0739 47.3337 19.783C47.1793 19.4921 46.8995 18.9684 46.7065 18.629C46.5232 18.2799 46.3013 17.863 46.2145 17.6981C45.9926 17.3102 44.2849 14.1199 43.677 12.9757C43.4165 12.4811 42.8955 11.5017 42.5193 10.8133C41.7474 9.37811 41.0913 8.16599 40.6282 7.28357C40.2327 6.5369 40.223 6.5369 40.1072 6.72114Z" fill="#F7654A"/>
<path fill-rule="evenodd" clip-rule="evenodd" d="M18.2061 8.79633C18.1771 8.88361 17.9263 9.75633 17.6658 10.7454C17.4149 11.7345 16.8843 13.7224 16.508 15.1672C16.1221 16.6121 15.6976 18.2024 15.5721 18.6969C15.3116 19.686 15.0994 20.5103 14.7231 21.926C14.588 22.44 14.4626 22.9151 14.4433 22.9927C14.4144 23.1091 14.6073 23.3321 15.3502 24.0594C16.1607 24.8642 16.4791 25.126 16.4791 24.9903C16.4791 24.9612 17.222 22.5369 17.7333 20.8885C18.2929 19.0848 18.6885 17.8339 19.3638 15.6327C19.7401 14.3915 19.7787 14.3042 19.8462 14.3042C19.9041 14.3042 20.7821 15.1963 21.689 16.166C21.9399 16.4375 22.7117 17.2618 23.4064 17.9988C24.1011 18.726 25.3167 20.0254 26.1175 20.8885C26.9183 21.7418 28.1533 23.0606 28.8672 23.8169C29.5716 24.5733 30.8162 25.8921 31.617 26.7454C32.9387 28.1515 33.4212 28.6848 35.0227 30.3624C35.2832 30.6436 35.5341 30.8763 35.563 30.8763C35.5823 30.8763 35.7656 30.5854 35.949 30.2266C36.1419 29.8776 36.47 29.2666 36.6726 28.8788C37.0585 28.1806 37.2129 27.8897 38.0426 26.3479C38.2935 25.8921 38.554 25.4073 38.6215 25.2909C38.689 25.1648 39.0557 24.4763 39.4416 23.7782C39.8179 23.0703 40.1652 22.4982 40.1941 22.4982C40.2713 22.4982 40.4739 22.8279 40.8792 23.5939C41.0528 23.9236 41.3326 24.4473 41.5063 24.7576C41.6799 25.0679 41.9983 25.6497 42.2106 26.0569C42.6255 26.8133 43.2622 27.9866 43.5131 28.4521C43.5903 28.5976 43.928 29.2085 44.2367 29.8C44.5647 30.4012 44.8445 30.886 44.8831 30.886C44.9314 30.886 46.9671 28.7333 49.5142 25.9988C50.865 24.5442 53.0647 22.2072 53.9524 21.2763C54.4058 20.8012 55.4189 19.7151 56.2004 18.8812C56.9819 18.0472 58.1589 16.7866 58.815 16.0885C59.4711 15.4 60.1079 14.7212 60.2236 14.5757C60.3491 14.4303 60.4841 14.3139 60.5324 14.3139C60.6096 14.3139 60.7736 14.7697 61.4972 17.1066C61.6516 17.6012 61.8735 18.3188 61.9892 18.7066C62.105 19.0945 62.3366 19.8121 62.4813 20.3066C62.626 20.8012 62.7804 21.2763 62.8093 21.3733C62.8383 21.4703 62.9734 21.8969 63.1084 22.343C63.2435 22.7891 63.4654 23.526 63.6198 24.0109C63.7645 24.486 63.8996 24.9127 63.9092 24.9515C63.9575 25.1357 64.1504 25 65.0381 24.0885L65.9739 23.1382L65.8099 22.5079C65.6073 21.703 65.1828 20.0933 64.4881 17.446C64.1794 16.2921 63.8513 15.0509 63.7645 14.6824C63.6777 14.3139 63.5426 13.8194 63.4751 13.5866C63.4075 13.3539 63.0988 12.1709 62.7804 10.9588C62.462 9.75633 62.1919 8.73815 62.1726 8.70906C62.1243 8.63148 61.6998 9.05815 60.6675 10.1636C60.2333 10.6388 58.9115 12.0448 57.7441 13.2763C56.5767 14.5175 55.2645 15.9139 54.8303 16.3891C53.5182 17.8048 51.5017 19.9479 50.5948 20.9079C50.1221 21.4024 49.1379 22.4497 48.4143 23.2351C46.504 25.2909 45.5874 26.2606 45.5006 26.3091C45.462 26.3382 45.3945 26.3382 45.3559 26.3091C45.3173 26.28 44.9796 25.6788 44.6033 24.9612C44.2367 24.2533 43.8315 23.4873 43.7061 23.2642C43.4841 22.8472 42.4711 20.9272 41.8343 19.7054C41.6317 19.3176 41.4002 18.8909 41.323 18.7357C41.2458 18.5903 40.9756 18.0763 40.7248 17.6012C40.4836 17.126 40.252 16.7091 40.2327 16.68C40.1652 16.6121 40.0977 16.7188 39.4898 17.9018C38.9399 18.9588 37.9654 20.8206 37.5988 21.4994C37.3576 21.9551 36.4314 23.7103 35.6209 25.2618C35.3508 25.7854 35.0806 26.2412 35.0324 26.2897C34.9552 26.3576 34.7815 26.2024 34.0483 25.446C33.5659 24.9418 32.8809 24.2242 32.5432 23.846C32.1958 23.4776 31.0284 22.2266 29.9382 21.063C28.8479 19.9091 27.6419 18.6097 27.256 18.2024C26.8701 17.7854 25.6641 16.4957 24.5738 15.3418C23.4836 14.1879 22.2197 12.8303 21.7566 12.3357C19.962 10.4157 18.3025 8.65088 18.2736 8.65088C18.2833 8.65088 18.2447 8.70906 18.2061 8.79633Z" fill="#F7654A"/>
<path fill-rule="evenodd" clip-rule="evenodd" d="M78.0148 10.7936C77.4553 10.9682 76.9729 11.4433 76.7606 12.0154C76.4615 12.8106 76.6738 13.7221 77.2816 14.2748C77.6868 14.6433 78.0341 14.7791 78.5455 14.7791C79.2691 14.7791 79.9348 14.3524 80.2629 13.6639C80.4848 13.2082 80.4944 12.2773 80.2725 11.8506C79.7998 10.9391 78.8928 10.5124 78.0148 10.7936ZM78.7385 11.2979C79.2595 11.8312 78.6709 12.6845 78.0148 12.3451C77.6 12.1318 77.5421 11.6179 77.8798 11.2979C78.1596 11.0361 78.478 11.0361 78.7385 11.2979Z" fill="#F7654A"/>
<path fill-rule="evenodd" clip-rule="evenodd" d="M1.15777 10.8619C0.405221 11.2304 0 11.9092 0 12.7722C0 13.228 0.0289444 13.3444 0.202611 13.6741C0.46311 14.1977 0.617479 14.3335 1.09989 14.5759C1.46651 14.7601 1.563 14.7795 1.95857 14.7504C2.73042 14.7019 3.24177 14.3625 3.61805 13.6353C3.77242 13.325 3.80136 13.1892 3.80136 12.7335C3.80136 12.0838 3.64699 11.7153 3.22247 11.2886C2.83655 10.891 2.49886 10.7456 1.94892 10.7165C1.57264 10.7068 1.42792 10.7262 1.15777 10.8619ZM2.53746 11.1819C2.73042 11.2692 2.91373 11.5698 2.91373 11.8025C2.91373 11.8995 2.8269 12.0644 2.72077 12.1904C2.5664 12.3747 2.47957 12.4135 2.24801 12.4135C2.01646 12.4135 1.93927 12.3747 1.77525 12.1904C1.51475 11.8898 1.51476 11.628 1.8042 11.3371C2.05505 11.0947 2.25766 11.0559 2.53746 11.1819Z" fill="#F7654A"/>
<path fill-rule="evenodd" clip-rule="evenodd" d="M4.11011 16.855C4.11011 16.8647 4.22589 17.0877 4.36096 17.3398C4.50568 17.5823 4.78548 18.1059 4.98809 18.4938C6.81158 21.9847 6.82123 22.0041 7.27469 22.4017C7.4773 22.5762 7.9983 23.032 8.42282 23.4198C8.84734 23.8077 9.5613 24.4477 10.0148 24.855C10.4682 25.2623 11.4427 26.1447 12.1856 26.8138C12.9381 27.4829 13.6714 28.1617 13.8451 28.2974C14.0091 28.4429 14.3371 28.7435 14.5783 28.9665C14.8195 29.1895 15.5431 29.8489 16.1896 30.4404C16.8456 31.0223 17.6175 31.7204 17.9069 31.9823C18.1964 32.2441 18.4569 32.4671 18.4858 32.4671C18.5051 32.4671 18.7945 31.7689 19.1129 30.9156C19.4313 30.072 19.8076 29.0732 19.9427 28.7047C20.0777 28.3362 20.3768 27.5604 20.5891 26.9786C20.811 26.3968 21.4092 24.7871 21.9302 23.4198C22.4512 22.0526 22.895 20.821 22.9336 20.7047C22.9915 20.4914 22.9818 20.4623 22.6056 20.0744C22.3933 19.8514 21.9784 19.3956 21.6697 19.0659C21.361 18.7459 21.1101 18.4938 21.0908 18.5035C21.0812 18.5229 20.5505 19.9871 19.933 21.7617C18.7753 25.0683 17.5692 28.5107 17.521 28.6562C17.4535 28.8598 17.3184 28.7532 15.5238 27.1144C15.0897 26.7168 14.3275 26.0186 13.8451 25.5823C13.3627 25.1459 12.6005 24.4477 12.1566 24.0501C11.7128 23.6429 10.9603 22.9544 10.4682 22.518C9.98581 22.0817 9.22361 21.3835 8.7798 20.9859C8.33598 20.5786 7.57378 19.8901 7.08173 19.4441C6.58967 18.998 5.75029 18.2223 5.20035 17.7277C4.31272 16.9326 4.11011 16.7677 4.11011 16.855Z" fill="#F7654A"/>
<path fill-rule="evenodd" clip-rule="evenodd" d="M75.728 17.2811C75.2553 17.7368 73.6537 19.1914 72.8722 19.8895C72.6503 20.0932 71.8688 20.7914 71.1548 21.4508C70.4408 22.1102 69.6786 22.7986 69.4664 22.9829C69.2638 23.1671 68.5016 23.8556 67.778 24.515C65.7133 26.3962 65.2598 26.8132 64.7388 27.2786C64.4783 27.5211 63.9959 27.9477 63.6871 28.2386C63.3688 28.5295 63.0793 28.7429 63.0311 28.7235C62.9828 28.7041 62.896 28.5392 62.8381 28.3744C62.6837 27.9186 61.1593 23.5453 60.9664 23.0217C60.8795 22.7792 60.4936 21.6738 60.098 20.5586C59.7121 19.4435 59.3744 18.5126 59.3648 18.4932C59.3358 18.4641 58.8052 19.0168 57.9079 20.0059L57.4641 20.4908L57.5992 20.9077C57.7439 21.3344 59.2394 25.3392 59.3455 25.5817C59.3744 25.6592 59.5867 26.212 59.8182 26.8132C60.3778 28.3259 60.9953 29.9744 61.1497 30.372C61.2172 30.5562 61.333 30.8665 61.4005 31.0702C61.7093 31.9235 61.9215 32.4374 61.9891 32.4374C62.0566 32.4374 62.4232 32.1077 64.5169 30.2071C64.9318 29.8192 65.3852 29.4217 65.5106 29.315C65.6361 29.2083 65.8966 28.9659 66.0992 28.7817C66.3018 28.5974 67.0158 27.9477 67.6911 27.3465C68.3568 26.7453 69.1094 26.0665 69.3506 25.8532C69.5918 25.6398 70.3154 24.9708 70.9715 24.3889C71.6179 23.8071 72.3705 23.1283 72.6406 22.8762C72.9108 22.6338 73.2291 22.3526 73.3449 22.2556C73.5668 22.0908 73.9045 21.4992 75.4386 18.5611C75.7762 17.9211 76.1236 17.2714 76.2104 17.1065C76.4323 16.7089 76.278 16.7574 75.728 17.2811Z" fill="#F7654A"/>
<path fill-rule="evenodd" clip-rule="evenodd" d="M24.6797 22.3334C24.6604 22.3625 24.3324 23.1964 23.9368 24.1855C23.5509 25.1746 23.1842 26.0667 23.1457 26.1831C23.0974 26.2898 22.6343 27.4437 22.123 28.7431C21.602 30.0425 21.1003 31.3128 20.9941 31.5746C20.888 31.8267 20.4635 32.8837 20.0583 33.9019C19.6434 34.9298 19.2768 35.8025 19.2285 35.8607C19.1224 35.9673 19.0356 35.8995 17.4436 34.5031C16.9419 34.0667 16.4016 33.6013 16.2472 33.4752C15.9385 33.2231 14.8 32.2243 14.2501 31.7492C14.0668 31.5843 13.6519 31.2158 13.3239 30.9346C11.539 29.3928 11.0469 28.9661 10.7189 28.6752C10.0725 28.0837 10.0532 28.1322 10.5645 29.0922C11.5776 31.0219 13.3432 34.3673 13.7194 35.0752C13.8931 35.3855 14.1922 35.9576 14.3852 36.3358C14.5781 36.7237 14.8193 37.1698 14.9062 37.3346C15.0026 37.4995 15.2342 37.9358 15.4175 38.3043C15.8613 39.1867 15.8806 39.2061 16.0736 38.9346C16.6139 38.1686 18.5146 37.5867 22.2677 37.0146C23.686 36.7916 26.0304 36.5201 27.4294 36.4134C27.9022 36.3746 28.6258 36.3164 29.0214 36.2776C32.1667 36.0158 33.556 35.977 40.1167 35.977C47.0441 35.977 48.7421 36.0255 52.2058 36.3455C52.611 36.3746 53.296 36.4425 53.7302 36.4813C56.2387 36.7043 59.4322 37.1601 60.7444 37.4704C60.8891 37.4995 61.2847 37.5964 61.6031 37.674C62.9345 37.9843 63.6774 38.314 64.1888 38.8183L64.5361 39.148L64.8352 38.5952C65.3273 37.6643 66.1956 36.0352 66.8324 34.8037C67.556 33.4364 67.9129 32.7479 68.2603 32.1079C68.3954 31.8461 68.6462 31.371 68.8199 31.0413C68.9935 30.7116 69.2347 30.2655 69.3505 30.0425C69.9969 28.8498 70.2478 28.3358 70.2188 28.297C70.1996 28.2776 70.0162 28.4037 69.8136 28.5879C68.7523 29.5286 68.3954 29.8389 67.6525 30.508C67.199 30.9152 66.6683 31.3904 66.4754 31.5746C66.2728 31.7589 65.7711 32.2146 65.3465 32.5831C64.9317 32.9516 64.2563 33.5528 63.8607 33.9116C61.4294 36.1031 61.3522 36.171 61.2557 36.0546C61.1979 35.9867 57.7438 27.4243 57.4254 26.5613C57.0588 25.5722 55.7274 22.3334 55.6791 22.314C55.6309 22.3043 53.7881 24.2631 52.3988 25.8243C52.1479 26.1152 51.2796 27.0558 50.4788 27.9189C49.678 28.7819 48.8193 29.7322 48.5588 30.0134C48.308 30.2946 47.4396 31.2352 46.6388 32.1079C45.838 32.971 44.989 33.9019 44.7575 34.1637C44.5259 34.4255 44.2847 34.6389 44.2172 34.6583C44.14 34.668 43.9953 34.4546 43.6576 33.8243C43.4164 33.3589 42.9533 32.4764 42.6349 31.8752C42.3165 31.274 41.6508 30.0037 41.1684 29.0631C40.6763 28.1225 40.2518 27.3467 40.2035 27.3467C40.1264 27.3467 40.0685 27.4631 39.2966 28.9467C38.9975 29.5092 38.573 30.3237 38.3511 30.7407C38.1292 31.1576 37.6757 32.011 37.3573 32.6413C36.5855 34.1346 36.2768 34.6679 36.1803 34.6679C36.132 34.6679 35.7558 34.2898 35.3409 33.8243C34.926 33.3589 34.3278 32.7092 34.0191 32.3698C33.1411 31.4195 31.1632 29.257 28.5872 26.4449C28.0276 25.8243 27.1689 24.9031 26.6962 24.3795C26.2234 23.8655 25.5963 23.1867 25.3165 22.8667C24.8341 22.314 24.7376 22.2364 24.6797 22.3334Z" fill="#F7654A"/>
<path fill-rule="evenodd" clip-rule="evenodd" d="M36.354 37.2667C32.3307 37.3443 27.7093 37.6061 25.6928 37.8679C25.4227 37.897 24.8149 37.9843 24.3325 38.0425C21.11 38.4304 18.3313 39.0898 16.8745 39.8073C16.5657 39.9528 16.2377 40.1564 16.1412 40.2534C15.9675 40.4086 15.9579 40.4667 15.9579 40.9419C15.9579 41.2522 15.9868 41.4655 16.0254 41.4655C16.064 41.4655 16.3149 41.3589 16.5754 41.2231C17.8779 40.554 19.8943 40.0207 23.1457 39.4679C24.7666 39.1964 28.8188 38.7892 31.2019 38.6728C31.9062 38.6437 33.2087 38.5758 34.106 38.5273C36.2382 38.411 44.14 38.411 46.3205 38.5273C50.0158 38.7116 50.585 38.7407 51.7042 38.8376C56.1134 39.2158 58.7473 39.6328 61.526 40.3601C62.2496 40.5443 63.1469 40.8837 63.7547 41.1746C64.0924 41.3395 64.3915 41.4655 64.4204 41.4364C64.5362 41.3686 64.4686 40.4086 64.3432 40.2728C63.8801 39.7589 61.7189 39.0316 59.249 38.5467C58.043 38.314 57.3773 38.2073 55.8143 38.0037C55.5248 37.9649 55.0617 37.9067 54.7916 37.8679C51.2218 37.4122 43.0209 37.1407 36.354 37.2667Z" fill="#F7654A"/>
<path fill-rule="evenodd" clip-rule="evenodd" d="M35.6883 41.1651C33.749 41.1941 28.7224 41.456 27.5067 41.582C27.1787 41.6208 26.5708 41.679 26.1463 41.7178C25.0754 41.8341 22.4607 42.1735 22.1037 42.2511C21.9397 42.2802 21.4766 42.3772 21.0714 42.4548C19.0163 42.8329 16.8938 43.5408 16.1605 44.1032C15.9579 44.2584 15.9482 44.2778 15.9482 44.7917C15.9482 45.0826 15.9675 45.3348 15.9965 45.3444C16.0254 45.3638 16.3052 45.2475 16.6236 45.0923C18.2156 44.3166 21.2258 43.5893 24.6509 43.1723C26.9664 42.8814 28.8671 42.7069 30.7099 42.6002C31.3466 42.5614 32.4755 42.4935 33.228 42.4451C35.0901 42.3384 45.3557 42.3384 47.1985 42.4548C47.9511 42.4935 49.0703 42.5614 49.6781 42.6002C50.3052 42.6293 51.1735 42.6972 51.627 42.736C52.3989 42.8038 52.7944 42.8426 54.3381 43.0075C58.5833 43.4632 61.9602 44.2099 63.774 45.102C64.1696 45.296 64.3722 45.3638 64.4108 45.3154C64.4397 45.2766 64.4494 45.0244 64.4397 44.7432C64.4204 44.1614 64.4108 44.142 63.5714 43.7348C61.854 42.8911 58.4482 42.1541 54.232 41.7372C53.8364 41.6984 53.2382 41.6402 52.9102 41.6014C52.3603 41.5432 50.7297 41.4463 47.5458 41.2717C46.3495 41.1941 37.8688 41.1263 35.6883 41.1651Z" fill="#F7654A"/>
<path fill-rule="evenodd" clip-rule="evenodd" d="M37.0198 43.6766C37.0005 43.696 36.0743 43.7444 34.9647 43.7832C29.3495 43.9869 23.9948 44.4135 21.3223 44.8887C21.0135 44.9372 20.618 45.0147 20.425 45.0438C18.6015 45.3541 16.9324 45.9263 16.3535 46.4111C16.0833 46.6438 15.929 46.9929 16.0158 47.1675C16.3921 47.8753 18.341 48.5929 21.2837 49.0972C22.9721 49.3978 24.8149 49.6305 27.1208 49.8341C27.555 49.8729 28.1435 49.9311 28.4233 49.9602C28.7031 49.9893 29.0215 49.999 29.118 49.9699C29.2723 49.9408 29.2337 49.9214 28.9346 49.8923C28.1242 49.7953 25.3166 49.359 24.0334 49.136C21.2161 48.6414 19.1418 48.079 18.3892 47.6038C17.8586 47.2644 17.7911 46.9347 18.2059 46.6632C18.7655 46.2754 20.8592 45.8972 23.908 45.616C26.648 45.3735 27.7769 45.2863 29.4074 45.2184C29.8995 45.199 30.7678 45.1505 31.3274 45.1214C32.543 45.0438 34.7332 44.9566 37.8978 44.8499C39.6537 44.7917 40.7439 44.7917 42.5289 44.8499C45.5294 44.9469 47.7581 45.0341 49.1668 45.1214C49.7939 45.1505 51.1253 45.2378 52.148 45.2863C53.1707 45.3444 54.3092 45.422 54.6951 45.4511C55.0811 45.4899 55.9011 45.5675 56.5186 45.616C58.8824 45.839 60.6866 46.1105 61.6997 46.4111C62.4522 46.6341 62.7031 47.0317 62.3268 47.3905C61.5646 48.1178 58.6895 48.8353 53.4312 49.6208C52.534 49.7566 51.6656 49.8826 51.4823 49.902C51.1832 49.9408 51.1736 49.9505 51.3472 49.9893C51.463 50.0087 51.6753 49.999 51.8393 49.9796C52.0033 49.9505 52.3217 49.9214 52.5436 49.9117C52.7655 49.9117 53.1707 49.8826 53.4409 49.8438C53.7014 49.8147 54.3864 49.7372 54.946 49.679C59.8086 49.1844 63.1662 48.3699 64.1599 47.4584C64.5748 47.0899 64.4687 46.702 63.8512 46.285C63.1083 45.7905 61.9505 45.422 59.9437 45.0438C56.7405 44.4426 52.3892 44.0547 45.7031 43.7735C43.8603 43.696 37.068 43.6184 37.0198 43.6766Z" fill="#F7654A"/>
</svg>
