<?xml version="1.0" encoding="utf-8"?><svg xmlns="http://www.w3.org/2000/svg" xmlns:xlink="http://www.w3.org/1999/xlink"><symbol viewBox="0 0 64 64" id="cog" xmlns="http://www.w3.org/2000/svg"><title>cog</title><path d="M29.411.051h4.64c.083.09.154.227.256.259 2.57.778 3.83 2.438 3.846 5.085.003.774.032 1.552-.01 2.323-.032.55.16.755.701.912 1.347.39 2.701.842 3.891 1.59.842.531 1.328.333 1.904-.349 3.254-3.837 6.493-4.048 10.147.032 2.23 2.49 2.336 5.219-.006 7.597-.672.682-1.741 1.283-1.898 2.067-.147.742.851 1.642 1.011 2.534.461 2.557 1.824 3.331 4.39 3.091 2.416-.224 4.432 1.488 4.912 3.693.208.963.038 2 .144 2.992.326 3.11-1.99 5.93-5.696 5.747-2.557-.125-2.547-.006-3.539 2.413-.429 1.043-1.469 2.17-1.277 3.05.211.979 1.536 1.702 2.333 2.573 1.821 1.99 1.808 4.794-.026 6.787a39.287 39.287 0 0 1-1.834 1.84c-2.208 2.106-5.258 2.237-7.258-.077-1.629-1.885-3.069-2.387-5.149-.896-.784.563-2.208.333-2.627 1.142-.41.794-.106 1.958-.118 2.96-.035 2.662-1.606 4.624-4.208 5.088-1.478.262-2.992.282-4.474-.054-2.32-.525-4.061-2.426-3.843-4.765.234-2.525-.477-3.837-3.05-4.563-2.717-.765-2.643-1.027-4.662.95-2.429 2.378-5.28 2.387-7.706.019-.39-.381-.781-.765-1.165-1.155-2.486-2.509-2.486-5.283-.003-7.776.643-.646 1.59-1.187 1.846-1.962.262-.79-.8-1.539-.957-2.416-.486-2.678-1.962-3.59-4.694-3.267-2.147.253-3.635-1.13-4.547-3.069-.202-.429-.086-.992-.55-1.306s0-3.555 0-3.555c.509-.678.544-1.562 1.04-2.266 1.414-2.013 3.45-2.374 5.667-2.189 1.341.112 2.23-.131 2.448-1.683a4.64 4.64 0 0 1 .89-2.109c1.046-1.354.614-2.262-.576-3.21-1.648-1.312-2.64-2.986-2.342-5.206.243-1.821 1.578-2.902 2.771-4.08 2.608-2.573 5.402-2.589 7.99-.045 1.859 1.824 1.859 1.824 4.166.816.333-.144.666-.285 1.002-.416 2.358-.918 2.358-.915 2.368-3.526.003-2.899.966-4.31 3.661-5.35.144-.054.208-.118.182-.262-.003-.006.003-.01.006-.01zm2.384 15.053c-9.018.003-16.352 7.302-16.352 16.262.003 8.938 7.376 16.259 16.371 16.256 9.027-.003 16.435-7.421 16.39-16.413-.045-8.816-7.475-16.109-16.41-16.106z"/><path d="M31.83 45.174c-7.654-.006-13.869-6.214-13.875-13.862-.006-7.443 6.374-13.709 13.942-13.683 7.581.022 13.92 6.307 13.875 13.754-.045 7.648-6.262 13.798-13.942 13.792zm-.089-7.603c3.526-.003 6.378-2.848 6.317-6.298-.061-3.427-2.861-6.128-6.346-6.122-3.478.006-6.291 2.746-6.317 6.15-.029 3.462 2.816 6.272 6.346 6.269z"/><path d="M31.83 32.634c-.797-.035-1.299-.493-1.267-1.264.032-.746.528-1.245 1.344-1.216.755.026 1.203.538 1.219 1.206.016.749-.458 1.242-1.296 1.274z"/></symbol><symbol viewBox="0 0 49 37" id="link" xmlns="http://www.w3.org/2000/svg"><defs><style>.bcls-1{fill:#fff;fill-rule:evenodd;filter:url(#bfilter)}</style><filter id="bfilter" x=".031" y=".375" width="48.281" height="36.625" filterUnits="userSpaceOnUse"><feOffset result="offset" dy="1" in="SourceAlpha"/><feGaussianBlur result="blur"/><feFlood result="flood" flood-color="#fff" flood-opacity=".75"/><feComposite result="composite" operator="in" in2="blur"/><feBlend result="blend" in="SourceGraphic"/><feFlood result="flood-2"/><feComposite result="composite-2" operator="in" in2="SourceGraphic"/><feBlend result="blend-2" in2="blend"/><feGaussianBlur result="blur-2" stdDeviation="1.414" in="SourceAlpha"/><feFlood result="flood-3" flood-color="#201820"/><feComposite result="composite-3" operator="out" in2="blur-2"/><feOffset result="offset-2" dy="1"/><feComposite result="composite-4" operator="in" in2="SourceAlpha"/><feBlend result="blend-3" mode="multiply" in2="blend-2"/></filter></defs><path id="bLink_2" data-name="Link 2" class="bcls-1" d="M25.645 17.853a4.761 4.761 0 0 0-.98-5.31l-1.683-1.683a4.76 4.76 0 0 0-6.731 0L7.14 19.971a4.76 4.76 0 0 0 0 6.731l2.129 2.278c1.859 1.859 3.682 2.007 6.433-.446l2.91-3.357 3.44 3.291-4.816 4.965a7.139 7.139 0 0 1-10.1 0l-5.044-5.048a7.139 7.139 0 0 1 0-10.1L14.568 5.812a7.139 7.139 0 0 1 10.1 0l5.048 5.048a7.139 7.139 0 0 1 0 10.1zm-1.835-.468c-.247 1.468-1.144 1.987 1.774 4.161l1.385 2.278a4.759 4.759 0 0 0 6.731 0l8.218-8.516a4.759 4.759 0 0 0 0-6.731l-1.683-1.683a4.76 4.76 0 0 0-6.731 0l-1.49 1.639-3.352-3.2C31.595 2.4 31.4 2.447 31.4 2.447a7.139 7.139 0 0 1 10.1 0l5.04 5.048s3.978 5.524 0 10.1L35.254 28.878a7.139 7.139 0 0 1-10.1 0l-5.048-5.049a7.139 7.139 0 0 1 0-10.1z"/></symbol><symbol viewBox="0 0 64 64" id="notebook" xmlns="http://www.w3.org/2000/svg"><title>notebook</title><path d="M8.339 55.591s2.633 6.654 6.516 6.654l42.435-.002a2.503 2.503 0 0 0 2.065-2.077L59.353 4.7a2.623 2.623 0 0 0-2.221-2.202L52.7 2.359A2.218 2.218 0 0 0 50.482.141H10.557a2.218 2.218 0 0 0-2.218 2.218v4.296h2.217s4.371.417 4.37 4.43a4.288 4.288 0 0 1-4.481 4.444l-2.106.13.139 8.741h2.075a4.43 4.43 0 0 1 4.421 4.723 4.514 4.514 0 0 1-4.445 4.282H8.44l-.037 8.741h2.218a4.412 4.412 0 0 1 4.281 4.562 4.335 4.335 0 0 1-4.444 4.585l-2.092-.139zM6.121 9.011a2.218 2.218 0 1 0 0 4.436h4.436a2.218 2.218 0 1 0 0-4.436H6.121zm0 17.746a2.218 2.218 0 1 0 0 4.436h4.436a2.218 2.218 0 1 0 0-4.436H6.121zm0 17.745a2.218 2.218 0 1 0 0 4.436h4.436a2.218 2.218 0 1 0 0-4.436H6.121zm44.361 11.091a2.218 2.218 0 0 0 2.218-2.218V4.371l2.287.76v50.594l.001.045a2.053 2.053 0 0 1-2.288 2.04H14.991s-2.287-.762-2.287-2.287zM19.429 15.666h28.834v17.739H19.429V15.666zm5.547 4.436H42.72a1.11 1.11 0 0 1 .002 2.218H24.976a1.109 1.109 0 1 1 0-2.218zm0 6.655H42.72a1.11 1.11 0 0 1 .002 2.218H24.976a1.11 1.11 0 0 1-.002-2.218z"/></symbol><symbol viewBox="0 0 45 46" id="strategy" xmlns="http://www.w3.org/2000/svg"><defs><style>.dcls-1{fill-rule:evenodd;filter:url(#dfilter)}</style><filter id="dfilter" x=".5" y=".531" width="44.344" height="46.469" filterUnits="userSpaceOnUse"><feOffset result="offset" dy="1" in="SourceAlpha"/><feGaussianBlur result="blur"/><feFlood result="flood" flood-color="#fff" flood-opacity=".75"/><feComposite result="composite" operator="in" in2="blur"/><feBlend result="blend" in="SourceGraphic"/><feGaussianBlur result="blur-2" stdDeviation="1.414" in="SourceAlpha"/><feFlood result="flood-2" flood-color="#201820"/><feComposite result="composite-2" operator="out" in2="blur-2"/><feOffset result="offset-2" dy="1"/><feComposite result="composite-3" operator="in" in2="SourceAlpha"/><feBlend result="blend-2" mode="multiply" in2="blend"/></filter></defs><path id="dStrategy" class="dcls-1" d="M7.75 25.953l1.28-.739a1.306 1.306 0 0 0 .434-1.857 1.391 1.391 0 0 0-1.9-.509l-4.813 2.777a1.437 1.437 0 0 0-.516 1.906A1.334 1.334 0 0 0 4.114 28l1.2-.7 3.9 7.727a4.848 4.848 0 1 0 2.42-1.132zm4.708 10.713a2.174 2.174 0 1 1-2.174 2.174 2.174 2.174 0 0 1 2.173-2.174zM.523 15.042l1.937 1.937-1.968 1.967.984.984 1.937-1.937L5.38 19.96l1.014-1.014-1.967-1.967 1.967-1.967-.953-.953-1.967 1.967-1.937-1.937zm12.52 1.391l1.937 1.937-1.967 1.967.987.984 1.937-1.936 1.963 1.967 1.015-1.015-1.968-1.967 1.968-1.97-.953-.953-1.967 1.967-1.937-1.934zm13.911-4.173l1.937 1.94-1.967 1.967.984.984 1.937-1.937 1.967 1.967 1.014-1.014-1.968-1.967 1.968-1.967-.953-.953-1.967 1.967-1.936-1.936zm-14.247-5.1c16 7.13 10.568 28.169 10.568 28.169a4.858 4.858 0 1 0 3.267.958 4.9 4.9 0 0 0-.651-.413c6.434-24.78-12.513-31.3-12.513-31.3S13.733 1 14.544.539L7.27 4.162l4.507 7.318a18.17 18.17 0 0 1 .931-4.323zm12.185 31.417a2.174 2.174 0 1 1-3.043.435 2.174 2.174 0 0 1 3.043-.435zm13.753-5.363a4.859 4.859 0 1 1-2.057-1.706 9.92 9.92 0 0 0 5.326-7.255l-4.85-3.847-2 2.782-1.264-7.215 7.26-.087-2.606 2.434 6.391 5.086a14.692 14.692 0 0 1-6.201 9.808zm-2.15 1.925A2.174 2.174 0 1 1 33.6 34.1a2.174 2.174 0 0 1 2.895 1.039z"/></symbol><symbol viewBox="0 0 64 64" id="write" xmlns="http://www.w3.org/2000/svg"><title>write</title><path d="M38.784 3.5H7.493a6.712 6.712 0 0 0-6.712 6.712V55a6.712 6.712 0 0 0 6.712 6.712h44.786A6.712 6.712 0 0 0 58.991 55V23.482c0-2.029-3.289-2.629-3.289-2.629a3.21 3.21 0 0 0-3.431 2.609l-.003 29.299a2.238 2.238 0 0 1-2.238 2.238H9.732a2.238 2.238 0 0 1-2.238-2.238V12.457a2.238 2.238 0 0 1 2.238-2.238h28.853S41.154 9.1 41.154 6.93c0 0 .15-3.429-2.37-3.429zM56.819.969a1.958 1.958 0 0 0-3.086-.273L49.921 4.67l7.991 7.792 3.724-3.707a1.76 1.76 0 0 0-.053-2.806zM37.371 33.047l19.031-18.491-8.457-8.008L28.714 25.6l-2.958 7.429 3.782 4.123zm-13.176 2.214l-.971 3.867 4.414-.663z"/></symbol></svg>