<?xml version="1.0" encoding="utf-8"?><svg xmlns="http://www.w3.org/2000/svg" xmlns:xlink="http://www.w3.org/1999/xlink"><symbol viewBox="0 0 32 32" id="android" xmlns="http://www.w3.org/2000/svg"><path d="M28 12c-1.1 0-2 .9-2 2v8c0 1.1.9 2 2 2s2-.9 2-2v-8c0-1.1-.9-2-2-2zM4 12c-1.1 0-2 .9-2 2v8c0 1.1.9 2 2 2s2-.9 2-2v-8c0-1.1-.9-2-2-2zm3 11a3 3 0 0 0 3 3v4c0 1.1.9 2 2 2s2-.9 2-2v-4h4v4c0 1.1.9 2 2 2s2-.9 2-2v-4a3 3 0 0 0 3-3V12H7v11zm17.944-13a8.994 8.994 0 0 0-4.051-6.551l1.001-2.001a1 1 0 0 0-1.789-.895l-1.004 2.009-.261-.104C17.947 2.161 16.992 2 16 2s-1.947.161-2.84.458l-.261.104L11.895.553a1 1 0 0 0-1.789.895l1.001 2.001A8.996 8.996 0 0 0 7.056 10v1H25v-1h-.056zM13 8a1 1 0 0 1-.002-2h.005a1 1 0 0 1-.002 2zm6 0a1 1 0 0 1-.002-2h.005a1 1 0 0 1-.002 2z"/></symbol><symbol viewBox="0 0 32 32" id="appleinc" xmlns="http://www.w3.org/2000/svg"><path d="M24.734 17.003c-.04-4.053 3.305-5.996 3.454-6.093-1.88-2.751-4.808-3.127-5.851-3.171-2.492-.252-4.862 1.467-6.127 1.467-1.261 0-3.213-1.43-5.28-1.392-2.716.04-5.221 1.579-6.619 4.012-2.822 4.897-.723 12.151 2.028 16.123 1.344 1.944 2.947 4.127 5.051 4.049 2.026-.081 2.793-1.311 5.242-1.311s3.138 1.311 5.283 1.271c2.18-.041 3.562-1.981 4.897-3.931 1.543-2.255 2.179-4.439 2.216-4.551-.048-.022-4.252-1.632-4.294-6.473zM20.705 5.11C21.822 3.755 22.576 1.875 22.37 0c-1.609.066-3.559 1.072-4.713 2.423-1.036 1.199-1.942 3.113-1.699 4.951 1.796.14 3.629-.913 4.747-2.264z"/></symbol><symbol viewBox="0 0 34 32" id="btn-downloand" xmlns="http://www.w3.org/2000/svg"><path d="M-.009 14.494c.045-.304.071-.608.13-.907.447-2.302 1.748-3.933 3.861-4.925.206-.098.478-.121.617-.273.134-.143.112-.42.188-.626.572-1.578 1.604-2.668 3.271-3.07 1.023-.246 2.011-.094 2.977.286.054.022.103.04.165.067 1.158-2.324 2.968-3.902 5.457-4.657a8.585 8.585 0 0 1 5.073.004c1.251.38 2.36 1.023 3.343 1.886a8.65 8.65 0 0 1 2.275 3.106c.523 1.198.742 2.454.733 3.763.268.027.527.049.787.076a5.731 5.731 0 0 1 2.4.854c1.457.907 2.471 2.15 2.856 3.852.076.34.107.693.161 1.037.004.045.018.085.031.125v.706c-.045.299-.067.608-.13.903-.425 2.06-1.622 3.522-3.482 4.456-.845.425-1.752.608-2.695.608h-7.965v-1.14h.192c2.592 0 5.184-.027 7.777.009 1.877.027 4.072-1.202 4.831-3.325.702-1.962.358-3.75-1.006-5.332a4.686 4.686 0 0 0-3.003-1.627c-.478-.063-.97-.036-1.453-.049-.161-.004-.322 0-.492 0 .013-.241.018-.469.036-.693.134-1.645-.152-3.209-1.028-4.617-1.234-1.989-2.968-3.321-5.309-3.723-1.949-.331-3.772-.018-5.457 1.059-1.01.648-1.895 1.403-2.503 2.44-.313.536-.55 1.117-.822 1.676-.018.04-.04.08-.063.134-.34-.17-.684-.322-1.01-.51-.599-.344-1.251-.402-1.908-.349-.965.072-1.752.523-2.387 1.238-.393.447-.594.988-.679 1.573a5.069 5.069 0 0 1-.112.572c-.013.058-.08.121-.139.143-.362.148-.729.273-1.086.425-.894.384-1.596.997-2.163 1.788-.456.635-.804 1.305-.979 2.069-.737 3.218 1.211 6.226 4.313 6.959.389.089.796.134 1.193.134 2.436.013 4.872.004 7.307.004h.197v1.14h-.192c-2.413 0-4.827.004-7.24 0-3.441-.004-5.908-2.36-6.65-5.171-.103-.389-.125-.8-.188-1.202a2.282 2.282 0 0 0-.031-.161 22.634 22.634 0 0 1 0-.737z"/><path d="M16.59 29.855V14.87h1.126v14.994c1.256-1.256 2.498-2.503 3.732-3.741.299.299.559.559.809.813-1.685 1.685-3.374 3.379-5.082 5.082-1.707-1.685-3.423-3.379-5.131-5.059l.778-.778c1.225 1.225 2.467 2.467 3.705 3.709.022-.009.04-.022.063-.036z"/></symbol><symbol viewBox="0 0 27 36" id="click" xmlns="http://www.w3.org/2000/svg"><path d="M26.42 34.19c-.22.91-1.05 1.59-2.05 1.59H10.26c-.62 0-1.21-.27-1.61-.74L2.51 28.3c-.46-.44-.73-1.06-.73-1.73 0-.66.26-1.28.74-1.75l.15-.15c.48-.46 1.09-.72 1.76-.72.67 0 1.26.26 1.74.72l2.29 2.31V11.07c0-1.36 1.31-2.36 2.7-2.36h.23c1.39 0 2.38 1 2.38 2.36v6.18c.53-.28 1.05-.58 1.59-.58h.22c1.4 0 2.43 1.25 2.43 2.61v.1c.53-.28 1.01-.58 1.54-.58h.23c1.39 0 2.48 1.25 2.48 2.61v.04c.53-.28.95-.53 1.49-.53h.22c1.4 0 2.53 1.2 2.53 2.56v10.7l-.08.01zm-2.45-12.21h-.22c-.72 0-1.37.56-1.48 1.24l-1.08-.03v-1.78c0-.77-.6-1.55-1.41-1.55h-.23c-.72 0-1.39.58-1.5 1.27l-1.1-.01v-1.84c0-.78-.56-1.55-1.37-1.55h-.22c-.72 0-1.42.59-1.53 1.27l-1.13-.02v-7.91c0-.78-.5-1.29-1.31-1.29h-.23c-.81 0-1.64.51-1.64 1.29v18.42l-4.09-4.06c-.28-.27-.56-.42-.96-.42-.39 0-.76.15-1.04.42l-.16.15c-.27.27-.42.62-.42.99 0 .38.15.73.42.99l6.18 6.78c.2.24.5.37.81.37h14.11c.58 0 1.05-.44 1.05-1l.02-10.27c0-.78-.66-1.46-1.47-1.46zM18.54 9.24h3.72v1.07h-3.72V9.24zM15.2 5.63l2.76-2.69.74.77-2.76 2.68-.74-.76zM10.58.22h1.06v3.72h-1.06V.22zM3.83 3.71l.74-.77 2.76 2.69-.73.76-2.77-2.68zm.38 6.6H.5V9.24h3.71v1.07z"/></symbol><symbol viewBox="0 0 32 32" id="cross" xmlns="http://www.w3.org/2000/svg"><path d="M31.708 25.708L22 16l9.708-9.708a1 1 0 0 0 0-1.414L27.122.292a1 1 0 0 0-1.414-.001L16 9.999 6.292.291a.998.998 0 0 0-1.414.001L.292 4.878a1 1 0 0 0 0 1.414L10 16 .292 25.708a.999.999 0 0 0 0 1.414l4.586 4.586a1 1 0 0 0 1.414 0L16 22l9.708 9.708a1 1 0 0 0 1.414 0l4.586-4.586a.999.999 0 0 0 0-1.414z"/></symbol><symbol viewBox="0 0 16 28" id="facebook" xmlns="http://www.w3.org/2000/svg"><path d="M14.984.187v4.125h-2.453c-1.922 0-2.281.922-2.281 2.25v2.953h4.578l-.609 4.625H10.25v11.859H5.469V14.14H1.485V9.515h3.984V6.109C5.469 2.156 7.891 0 11.422 0c1.687 0 3.141.125 3.563.187z"/></symbol><symbol viewBox="0 0 36 28" id="google-plus" xmlns="http://www.w3.org/2000/svg"><path d="M22.453 14.266c0 6.547-4.391 11.188-11 11.188C5.125 25.454 0 20.329 0 14.001S5.125 2.548 11.453 2.548c3.094 0 5.672 1.125 7.672 3l-3.109 2.984c-.844-.812-2.328-1.766-4.562-1.766C7.548 6.766 4.36 10 4.36 14s3.187 7.234 7.094 7.234c4.531 0 6.234-3.266 6.5-4.937h-6.5v-3.938h10.813c.109.578.187 1.156.187 1.906zM36 12.359v3.281h-3.266v3.266h-3.281V15.64h-3.266v-3.281h3.266V9.093h3.281v3.266H36z"/></symbol><symbol viewBox="0 0 37 36" id="like" xmlns="http://www.w3.org/2000/svg"><path d="M15.01 35.42h15.11c1.48-.02 2.72-.54 3.31-1.38.86-1.21.86-2.51.79-3.17.68-.76 1.05-1.92 1.1-3.43.02-.56-.08-1-.22-1.39.52-.61 1.02-1.6 1.1-2.85.06-1.02-.17-1.81-.43-2.35.36-.55.7-1.36.73-2.43.07-3.43-3.06-4.91-5.24-5.07l-4.56.08c.06-.15.16-.32.25-.46.24-.29 1.48-1.89 2.55-5.05 1.35-4.01-2.08-6.8-2.23-6.92l-.24-.15-.08-.04c-.14-.06-.62-.23-1.24-.23-.55 0-1.06.13-1.51.4-.95.56-1.52 1.6-1.7 3.1-.31 2.67-2.58 5.1-3.87 6.11-.17.14-.32.25-.41.33-.84.73-1.59 2.29-2.25 3.67l-.27.56c-.36.75-1.36 1.97-1.95 2.53-.32.01-.75.01-1.14.02-.26-.73-.69-1.63-1.66-1.63H2.82c-1.19 0-2.32 1.15-2.32 2.4V33.3c0 1.19 1.05 2.12 2.32 2.12h12.19zm-3.25-16.95l.43-.01c.55 0 1.39-.02 1.81-.02l.2-.01.16-.14c.62-.53 1.89-2.01 2.39-3.03l.27-.57c.55-1.15 1.3-2.72 1.96-3.29.09-.07.21-.17.37-.29.39-.31 3.86-3.14 4.3-6.9.13-1.11.52-1.86 1.14-2.23.27-.16.58-.24.92-.24.37 0 .66.09.76.13l.11.06c.31.27 2.87 2.51 1.82 5.62-1.02 3.03-2.22 4.52-2.38 4.73-.26.37-.82 1.3-.51 1.98l.15.31.46.03 5.11-.09c1.45.11 4.16 1.06 4.11 3.88-.02.99-.4 1.67-.71 2.06l-.24.32.2.34c.24.39.51 1.05.45 2.02-.07 1.13-.59 1.98-1.02 2.37l-.31.28.17.39c.19.4.3.75.28 1.23-.06 1.68-.55 2.48-.95 2.84l-.24.22.06.32c.07.34.22 1.52-.54 2.59-.3.42-1.08.87-2.39.88-.27.01-.68.01-1.19.01l-4.02-.01H11.53v-16.5c.04.11.07.22.1.31l.13.41zM1.66 33.3V18.07c0-.61.61-1.23 1.16-1.23h7.55v17.41H2.82c-.53 0-1.16-.33-1.16-.95z"/></symbol><symbol viewBox="0 0 36 32" id="map" xmlns="http://www.w3.org/2000/svg"><path d="M35.67 30.46c-.43.73-1.2 1.17-2.06 1.17H2.39c-.86 0-1.63-.44-2.06-1.17-.44-.74-.45-1.62-.04-2.37l4.65-8.45c.42-.76 1.22-1.24 2.09-1.24h4.36c.33 0 .6.27.6.61 0 .33-.27.6-.6.6H7.03c-.43 0-.83.23-1.04.61l-4.64 8.45c-.21.37-.2.81.01 1.18.22.36.6.58 1.03.58h31.22c.43 0 .81-.22 1.03-.58.21-.37.22-.81.01-1.18l-4.64-8.45c-.21-.38-.61-.61-1.04-.61h-4.36c-.33 0-.6-.27-.6-.6 0-.34.27-.61.6-.61h4.36c.87 0 1.67.48 2.09 1.24l4.65 8.45c.41.75.4 1.63-.04 2.37zm-17.68-4.49l-.47-.57c-.32-.4-7.94-9.83-7.94-16C9.58 4.42 13.36.37 18 .37c4.62 0 8.4 4.05 8.42 9.03.02 6.17-7.64 15.6-7.97 16l-.46.57zM18 1.57c-3.98 0-7.22 3.51-7.22 7.83 0 4.91 5.55 12.48 7.21 14.65 1.67-2.16 7.25-9.74 7.23-14.65-.02-4.32-3.26-7.83-7.22-7.83zm-3.01 6.61a3.01 3.01 0 0 1 6.02 0c0 1.66-1.35 3.01-3.01 3.01-1.66 0-3.01-1.35-3.01-3.01zM18 9.99a1.805 1.805 0 0 0 0-3.61 1.805 1.805 0 0 0 0 3.61z"/></symbol><symbol viewBox="0 0 30 36" id="music" xmlns="http://www.w3.org/2000/svg"><path d="M.83 31.31H3.3c-.02 0 .16.13.16.19v3.76a.58.58 0 0 0 1.16 0V31.5c0-.06-.22-.19-.24-.19h2.47c.32 0 .65-.24.65-.56v-6.94h3.46v.92c0 .32.08.81.4.81h3.77c3.22 0 5.84-2.83 5.84-6.05 0-3.23-2.62-6.06-5.84-6.06h-3.77c-.32 0-.4.45-.4.76v.97H6.85C1.11 15.16 0 18.13 0 19.93v10.82c0 .32.51.56.83.56zm11.29-16.73h3.01c2.58 0 4.69 2.32 4.69 4.91 0 2.58-2.11 4.9-4.69 4.9h-3.01V14.58zm-1.16 8.08H7.5v-6.35h3.46v6.35zm-9.81-2.73c0-2.29 1.74-3.52 5.2-3.64v13.87h-5.2V19.93zm14.73-8.23h3.01c.32 0 .73-.2.73-.52v-.64h3.46v6.66c0 .32 0 .84.32.84h2.47c-.02 0 .09-.15.09-.08v17.3c0 .32.26.58.58.58.32 0 .57-.26.57-.58v-17.3c0-.07-.14.08-.16.08h2.47c.32 0 .58-.52.58-.84V6.39c0-1.8-.86-5.08-6.6-5.08h-3.78V.65c0-.32-.41-.49-.73-.49h-3.01c-3.22 0-5.85 2.55-5.85 5.77 0 3.22 2.63 5.77 5.85 5.77zm12.97-5.31v10.5h-4.62V2.74c2.88.13 4.62 1.35 4.62 3.65zm-5.77-3.92v6.92h-3.46V2.47h3.46zm-7.2-1.16h2.58v9.23h-2.58c-2.59 0-4.69-2.03-4.69-4.61 0-2.59 2.1-4.62 4.69-4.62z"/></symbol><symbol viewBox="0 0 36 36" id="navigation" xmlns="http://www.w3.org/2000/svg"><path d="M18 36.01h-.15C7.92 35.47-.09 27.71 0 17.85.08 8.07 8.15-.01 18-.01h.15c9.93 0 17.94 8.3 17.85 18.16-.08 9.78-8.15 17.86-18 17.86zm.14-34.93H18c-9.25 0-16.83 7.6-16.91 16.78-.07 9.26 7.45 16.51 16.77 17.06H18c9.25 0 16.83-7.6 16.91-16.78.07-9.26-7.45-16.98-16.77-17.06zm3.12 19.84c-.05.1-.14.19-.25.25l-10.99 5.21c-.07.04-.15.06-.23.06-.15 0-.29-.06-.39-.17a.516.516 0 0 1-.1-.62l5.43-10.82c.06-.11.15-.2.26-.25l10.99-5.23c.21-.1.46-.05.62.11.17.17.21.42.1.63l-5.44 10.83zm-5.63-5.44l-4.64 9.23 9.38-4.45 4.64-9.23-9.38 4.45z"/></symbol><symbol viewBox="0 0 26 28" id="twitter" xmlns="http://www.w3.org/2000/svg"><path d="M25.312 6.375a10.85 10.85 0 0 1-2.531 2.609c.016.219.016.438.016.656 0 6.672-5.078 14.359-14.359 14.359-2.859 0-5.516-.828-7.75-2.266.406.047.797.063 1.219.063 2.359 0 4.531-.797 6.266-2.156a5.056 5.056 0 0 1-4.719-3.5c.313.047.625.078.953.078.453 0 .906-.063 1.328-.172a5.048 5.048 0 0 1-4.047-4.953v-.063a5.093 5.093 0 0 0 2.281.641 5.044 5.044 0 0 1-2.25-4.203c0-.938.25-1.797.688-2.547a14.344 14.344 0 0 0 10.406 5.281 5.708 5.708 0 0 1-.125-1.156 5.045 5.045 0 0 1 5.047-5.047 5.03 5.03 0 0 1 3.687 1.594 9.943 9.943 0 0 0 3.203-1.219 5.032 5.032 0 0 1-2.219 2.781c1.016-.109 2-.391 2.906-.781z"/></symbol><symbol viewBox="0 0 37 36" id="user" xmlns="http://www.w3.org/2000/svg"><path d="M18.5 0C8.57 0 .5 8.07.5 18c0 9.92 8.07 18 18 18s18-8.08 18-18c0-9.93-8.07-18-18-18zM9.66 32.38c.64-.26 1.43-.28 2.62-.28h1.69c.19 0 .36-.09.46-.25L16.38 29c.08-.12.1-.25.09-.38.64.32 1.32.5 2.02.5.72 0 1.42-.19 2.07-.52-.02.13.01.28.09.4l2 2.86c.1.15.27.24.46.24h2.03c1.09 0 1.72.01 2.24.25-2.58 1.6-5.62 2.53-8.88 2.53-3.24 0-6.27-.91-8.84-2.5zm14.51-18.97c.64 2.19 1.18 6.05-.06 7.07-.13.11-.2.27-.2.43 0 3.13-2.55 7.1-5.42 7.1-2.86 0-5.41-3.97-5.41-7.1 0-.08-.02-.15-.05-.22-1.64-3.73-.25-7.18-.24-7.22.03-.07.04-.14.04-.21 0-1.86.34-3.27 4.53-3.27.11 0 .21-.03.3-.09 1.2-.74 2.34-1.12 3.39-1.12 1.18 0 2.17.49 2.78 1.38.59.85.72 1.94.36 2.9a.6.6 0 0 0-.02.35zm4.23 18.26c-.92-.69-1.92-.69-3.26-.69H23.4l-1.83-2.62a.587.587 0 0 0-.29-.2c2.12-1.47 3.65-4.4 3.74-7 1.78-1.87.58-6.76.27-7.88.42-1.26.22-2.65-.54-3.75-.81-1.19-2.16-1.86-3.7-1.86-1.22 0-2.51.4-3.85 1.2-4.74.05-5.46 2.07-5.48 4.28-.25.66-1.38 4.08.24 7.88.05 2.64 1.6 5.65 3.76 7.14-.1.04-.19.1-.26.2l-1.78 2.61h-1.4c-1.46 0-2.63.01-3.66.7-4.24-3.07-7-8.06-7-13.68 0-9.31 7.57-16.89 16.88-16.89 9.31 0 16.88 7.58 16.88 16.89 0 5.61-2.75 10.59-6.98 13.67z"/></symbol><symbol viewBox="0 0 32 32" id="windows8" xmlns="http://www.w3.org/2000/svg"><path d="M.011 16L0 6.248l12-1.63V16zM14 4.328L29.996 2v14H14zM30 18l-.004 14L14 29.75V18zM12 29.495L.01 27.851.009 18H12z"/></symbol></svg>