<svg width="85" height="115" fill="none" xmlns="http://www.w3.org/2000/svg"><path d="M82.694 70.653V12.066L42.43 3.16 2.028 12.066v50.238L3.566 77.75 13.63 92.918l28.8 19.761 27.54-18.37 7.41-8.07 5.313-15.587z" fill="#fff"/><path d="M72.908 70.376l1.398-51.072-32.574-7.793-30.617 7.793v51.072l8.108 16.7 24.186 15.446L66.617 84.57l6.29-14.194z" fill="#00728F"/><path fill="#FFCC34" d="M28.73 48.389h27.681v26.719H28.73z"/><path d="M42.5 22.495a2.231 2.231 0 002.238-2.226 2.233 2.233 0 00-2.237-2.227c-1.233 0-2.237 1-2.237 2.227a2.233 2.233 0 002.237 2.226z" fill="#fff"/><path d="M38.779 113.106a6.712 6.712 0 007.443 0L66.077 99.93C77.927 92.068 85 78.91 85 64.731V11.366a2.227 2.227 0 00-1.754-2.174L42.984.286a2.28 2.28 0 00-.97 0L1.751 9.192A2.227 2.227 0 000 11.366v53.368c0 14.178 7.073 27.337 18.923 35.2l19.855 13.172zM4.477 64.734V13.15L42.5 4.739l38.027 8.41v51.585c0 12.683-6.33 24.459-16.93 31.492l-19.855 13.176a2.23 2.23 0 01-2.477 0L21.41 96.226C10.807 89.193 4.477 77.42 4.477 64.734z" fill="#00485A"/><path d="M41.26 104.047a2.258 2.258 0 002.482 0l17.372-11.526c9.356-6.203 14.94-16.59 14.94-27.787V18.51a2.23 2.23 0 00-1.754-2.174L42.985 9.412a2.195 2.195 0 00-.97 0l-31.316 6.924a2.23 2.23 0 00-1.75 2.174v46.227c0 11.194 5.583 21.583 14.938 27.787l17.372 11.523zM13.424 64.734v-44.44l29.079-6.432 29.079 6.432v44.44c0 9.702-4.84 18.706-12.946 24.083l-16.13 10.701-16.13-10.701c-8.112-5.377-12.952-14.38-12.952-24.083z" fill="#00485A"/><path d="M50.648 24.789c14.436 3.173 13.771 3.092 14.224 3.092a2.233 2.233 0 002.18-1.742 2.229 2.229 0 00-1.7-2.658l-13.736-3.04a2.236 2.236 0 00-2.668 1.69 2.23 2.23 0 001.7 2.658z" fill="#fff"/><path d="M29.082 77.27h26.843a2.231 2.231 0 002.236-2.227V48.324a2.231 2.231 0 00-2.236-2.226h-2.237V43.87c0-6.15-5.005-11.133-11.184-11.133-6.166 0-11.185 4.996-11.185 11.133v2.227h-2.237a2.231 2.231 0 00-2.236 2.226v26.72a2.231 2.231 0 002.236 2.226zm6.708-33.4c0-3.682 3.011-6.68 6.71-6.68 3.705 0 6.711 2.992 6.711 6.68v2.227h-13.42V43.87zm-4.47 6.68h22.368v22.266H31.319V50.55z" fill="#00485A"/><path d="M42.5 55.003a2.231 2.231 0 00-2.236 2.227v8.906a2.231 2.231 0 002.237 2.226 2.231 2.231 0 002.237-2.226V57.23a2.231 2.231 0 00-2.237-2.227z" fill="#00485A"/></svg>