<svg width="114" height="115" fill="none" xmlns="http://www.w3.org/2000/svg"><path d="M111.465 82.215v-51.14l-1.264-2.987-5.746-1.494H7.233l-5.286 5.631.69 51.024 108.828-1.034z" fill="#fff"/><path d="M100.318 9.356l-5.171-5.861-8.734-1.15v15.86h4.022v15.743h-4.022v16.434l8.734-1.61 5.171-7.239V9.356zM71.933 63.139H61.016L60.21 74.17l-5.63-1.38-11.723-.919-8.044 2.299V61.644L23.207 63.14l-7.47 5.286-7.7 14.71h77.916l-6.665-14.71-7.355-5.286z" fill="#00728F"/><path d="M42.284 82.79l2.528-13.676 6.666-.46 2.183 14.71-11.377-.575zm36.544-32.753V34.293l7.7-.575-.575 16.32h-7.125zm0-31.258V3.149l7.7-.804-.575 16.434h-7.125z" fill="#FFCC34"/><path d="M24.471 36.936l6.436-4.137v-3.333l9.423-1.379 7.585-5.401 7.584 5.401 8.505 2.413v3.448l4.481 1.034 3.678 5.861-3.678 5.861-4.481 1.494-8.505 9.194v3.102l-4.941 7.93h-6.206l-4.022-6.436v-2.987l-3.792-3.793-3.907-7.01-5.402-1.494-3.907-3.333 1.15-6.435zM112.5 82.675L1.832 83.48l1.609 7.354 4.942 3.103h41.14v6.78l-25.856 6.666.574 5.056h65.85v-5.631l-24.823-5.171-.92-6.895 42.176-.805 5.286-5.056.69-6.206z" fill="#fff"/><path d="M69.175 14.987L59.062 4.299l-14.02-1.724-13.446 5.402-7.814 13.79v15.744l7.814-4.597v-3.333l5.287-.689 10.917-5.86 9.653 5.86 5.631.69.92 2.528 8.044 5.4V23.032l-2.873-8.044z" fill="#FFCC34"/><path d="M104.807 24.137h-1.839V13.104c0-7.097-5.776-12.87-12.87-12.87H77.225v20.225h11.032v3.678H73.456C72.505 10.8 61.379.233 47.807.233c-13.574 0-24.699 10.568-25.648 23.904H9.194C4.124 24.137 0 28.26 0 33.33v53.323c0 5.07 4.124 9.193 9.194 9.193h38.613v4.03l-25.742 5.516v8.841h69.871v-8.841l-25.742-5.517v-4.029h38.613c5.07 0 9.193-4.123 9.193-9.193V33.33c0-5.068-4.123-9.193-9.193-9.193zm-5.516-11.033v25.742c0 5.07-4.123 9.194-9.194 9.194H88.26V35.169h3.677V16.782h-3.678V3.91h1.84c5.07 0 9.193 4.125 9.193 9.193zM80.904 48.04V35.169h3.677v12.87h-3.677zm0-44.13h3.677v12.872h-3.677V3.91zm7.355 27.581H77.225v20.226h12.871c7.095 0 12.871-5.773 12.871-12.87V27.813h1.839a5.523 5.523 0 015.516 5.516v47.807H87.666l-3.774-9.433c-2.165-5.41-7.086-9.324-12.848-10.21L57 59.335v-.91a18.476 18.476 0 007.662-8.575c4.924-.166 8.886-4.197 8.886-9.162v-12.87h14.71v3.674zM73.218 81.138l-1.542-7.716-3.606.722 1.397 6.991H54.946l-.85-6.796 8.42 1.685V63.9l7.967 1.227a12.92 12.92 0 019.993 7.941l3.227 8.068H73.218zM23.94 73.42l-1.544 7.716H11.911l3.227-8.068a12.921 12.921 0 019.993-7.94l7.966-1.226v12.122l8.42-1.685-.851 6.797H26.145l1.4-6.994-3.605-.722zm29.438-4.829l2.83-5.659 2.631.405v8.203l-5.224-1.044-.237-1.905zm-5.571-11.359c-8.111 0-14.71-6.598-14.71-14.71v-11.1a23.86 23.86 0 0014.71-6.535 23.83 23.83 0 0014.71 6.534v11.102c0 8.11-6.6 14.71-14.71 14.71zm-5.516 2.83a18.383 18.383 0 0011.032 0v.413l-2.974 5.951h-5.082l-2.974-5.95v-.414h-.002zm-2.882 2.868l2.829 5.659L42 70.493l-5.226 1.043v-8.203l2.634-.402zm6.346 7.173h4.109l1.379 11.033h-6.867l1.379-11.033zm20.439-27.58v-7.017c2.135.76 3.677 2.783 3.677 5.178 0 2.517-1.705 4.622-4.012 5.282.216-1.117.335-2.267.335-3.443zM47.807 3.91c12.168 0 22.064 9.897 22.064 22.064v7.404c-1.073-.814-2.312-1.421-3.677-1.7v-3.865h-1.839c-5.438 0-10.55-2.12-14.395-5.962l-2.15-2.156-2.157 2.154a20.221 20.221 0 01-14.392 5.962h-1.839v3.863c-1.365.28-2.604.887-3.677 1.699v-7.401C25.742 13.81 35.64 3.911 47.807 3.911zM29.755 45.967c-2.307-.658-4.013-2.763-4.013-5.282 0-2.395 1.543-4.418 3.678-5.178v7.017c0 1.176.122 2.326.335 3.443zM9.194 27.814h12.871v12.871c0 4.965 3.962 8.996 8.886 9.161a18.487 18.487 0 007.662 8.576v.91l-14.043 2.16c-5.76.888-10.685 4.8-12.848 10.21l-3.774 9.432h-4.27V33.328a5.523 5.523 0 015.516-5.514zm16.548 80.552l22.065-4.728v6.918H25.742v-2.19zm62.516 0v2.19H66.195v-6.918l22.064 4.728zm-25.741 2.19H51.484v-14.71h11.033v14.71zm42.29-18.387H9.194a5.523 5.523 0 01-5.516-5.516v-1.839h106.645v1.839a5.522 5.522 0 01-5.516 5.516z" fill="#00485A"/><path d="M57 37.008a1.839 1.839 0 100-3.678 1.839 1.839 0 000 3.678zm-18.387 0a1.839 1.839 0 100-3.678 1.839 1.839 0 000 3.678zm16.549 5.515a7.362 7.362 0 01-7.355 7.355 7.362 7.362 0 01-7.355-7.355h-3.677c0 6.084 4.948 11.033 11.032 11.033s11.032-4.949 11.032-11.033h-3.677z" fill="#00485A"/></svg>