<svg width="114" height="113" fill="none" xmlns="http://www.w3.org/2000/svg"><ellipse cx="34.639" cy="76.557" rx="5.285" ry="5.17" fill="#00728F"/><ellipse cx="7.294" cy="105.74" rx="5.285" ry="5.17" fill="#00728F"/><ellipse cx="16.37" cy="89.31" rx="4.711" ry="4.596" fill="#00728F"/><ellipse cx="5.341" cy="78.28" rx="4.711" ry="4.596" fill="#00728F"/><ellipse cx="32.915" cy="94.825" rx="4.711" ry="4.596" fill="#00728F"/><path d="M23.595 69.728L8.469 54.258l9.97-1.604L69.085 1.893l7.219 7.104-50.19 50.418-2.52 10.313z" fill="#fff"/><path fill="#FFCC34" d="M59.915 61.965h50.553v40.213H59.915z"/><path fill="#00728F" d="M95.532 71.156h14.017v10.57H95.532z"/><path fill="#fff" d="M58.077 71.386h36.306v8.272H58.077z"/><path d="M105.413 50.705l-7.927-4.825H71.749l-10.8 8.617-2.872 9.651 52.047-.574V60.93l-4.711-10.226zM7.354 55.99l15.238 15.239-3.738 3.737-15.237-15.24zM71.75 1.645h23.576l.028 6.675h-18.09L71.75 1.645z" fill="#FFCC34"/><path fill="#00728F" d="M72.324 38.756h24.128v5.055H72.324z"/><ellipse cx="66.464" cy="104.131" rx="6.549" ry="7.238" fill="#fff"/><ellipse cx="102.771" cy="102.637" rx="8.387" ry="8.732" fill="#fff"/><path d="M104.788 100.34h-3.677v3.676h3.677v-3.676zm-36.766 1.838h-3.677v3.677h3.677v-3.677z" fill="#00485A"/><path d="M104.788 30.485a1.84 1.84 0 001.301-.538l7.353-7.353c.345-.345.538-.812.538-1.3V12.1a1.84 1.84 0 00-.538-1.3l-7.353-7.353a1.837 1.837 0 00-1.301-.538h-7.353V1.072a1.838 1.838 0 00-1.838-1.839H69.86a1.84 1.84 0 00-1.3.538L53.853 14.477 17.506 50.826l-10.451 1.74v.032a1.794 1.794 0 00-1.002.483L.538 58.597a1.839 1.839 0 000 2.599L17.083 77.74a1.839 1.839 0 002.599 0l5.515-5.514c.264-.276.431-.628.482-1.004h.032l1.742-10.449L63.808 24.43l14.169-14.167h17.622a1.838 1.838 0 001.838-1.838V6.587h6.593l6.275 6.275v7.67l-6.277 6.276H91.92a1.84 1.84 0 00-1.3.538l-8.652 8.653h-10.27a1.838 1.838 0 00-1.838 1.839v6.919a20.24 20.24 0 00-12.868 18.817v40.443a9.191 9.191 0 009.192 9.191 9.192 9.192 0 009.191-9.191h16.71c.996 6.009 6.671 10.076 12.683 9.083 6.009-.995 10.076-6.67 9.083-12.682a11.062 11.062 0 00-1.707-4.324v-32.52a20.241 20.241 0 00-12.868-18.817v-6.92A1.838 1.838 0 0097.437 36H87.168l5.515-5.514h12.105zm-86.4 43.358L4.444 59.897l2.916-2.916 13.946 13.946-2.918 2.916zm6.055-15.246c-.271.271-.45.62-.513.997L22.678 67.1 11.184 55.605l7.507-1.252c.377-.062.726-.242.998-.513l35.465-35.465 4.754 4.754-35.465 35.468zm38.064-38.065l-4.752-4.754L69.863 3.671l4.752 4.754-12.108 12.107zM93.758 6.587H77.974L74.298 2.91h19.46v3.677zm14.707 62.502H60.669v-3.677h47.796v3.677zm-3.677 22.225V89.31a1.837 1.837 0 00-1.838-1.838H66.184a1.838 1.838 0 00-1.838 1.838v5.7a9.086 9.086 0 00-3.677 1.7V80.119h33.09v1.838c0 1.016.822 1.839 1.838 1.839h12.868v8.846a10.936 10.936 0 00-3.677-1.328zm-11.03-14.872h-33.09v-3.676h33.09v3.676zm14.707 3.677h-11.03v-7.353h11.03v7.353zm-42.281 29.413a5.516 5.516 0 010-11.03 5.515 5.515 0 110 11.03zm25.902-9.192h-17.49a9.221 9.221 0 00-6.574-5.33v-3.861h33.09v.165a11.047 11.047 0 00-9.026 9.026zm10.864 9.192a7.354 7.354 0 010-14.707 7.354 7.354 0 010 14.707zm5.414-47.796H60.77c.947-8.37 8.022-14.697 16.444-14.707H91.92c8.424.01 15.497 6.338 16.444 14.707zM95.597 43.704a20.149 20.149 0 00-3.677-.351H77.214a20.148 20.148 0 00-3.677.351v-4.028h22.06v4.028zM11.035 78.28a5.516 5.516 0 00-5.515-5.514A5.516 5.516 0 00.005 78.28a5.515 5.515 0 1011.03 0zm-7.354 0a1.838 1.838 0 113.676 0 1.838 1.838 0 01-3.676 0zm3.677 20.221a7.354 7.354 0 10.001 14.708 7.354 7.354 0 00-.001-14.708zm0 11.03a3.675 3.675 0 01-3.677-3.676 3.676 3.676 0 013.677-3.677 3.676 3.676 0 013.677 3.677 3.675 3.675 0 01-3.677 3.676zm9.192-25.735a5.516 5.516 0 00-5.516 5.515 5.516 5.516 0 005.515 5.515 5.515 5.515 0 100-11.03zm0 7.353a1.838 1.838 0 11-.002-3.675 1.838 1.838 0 01.002 3.675z" fill="#00485A"/><path d="M33.094 89.31a5.516 5.516 0 00-5.515 5.515 5.516 5.516 0 005.515 5.515 5.515 5.515 0 100-11.03zm0 7.353a1.838 1.838 0 110-3.675 1.838 1.838 0 010 3.675zm1.839-27.573a7.354 7.354 0 000 14.706 7.354 7.354 0 000-14.706zm0 11.03a3.676 3.676 0 01-3.677-3.677 3.676 3.676 0 013.677-3.677 3.676 3.676 0 013.676 3.677 3.676 3.676 0 01-3.676 3.676zM22.064 98.501h-3.676v3.677h3.676v-3.677zm7.354 5.516H25.74v3.676h3.677v-3.676z" fill="#00485A"/></svg>