<svg width="116" height="109" fill="none" xmlns="http://www.w3.org/2000/svg"><ellipse cx="58.031" cy="55.634" rx="48.195" ry="48.851" fill="#fff"/><ellipse cx="58.031" cy="54.65" rx="35.737" ry="35.409" fill="#00728F"/><path d="M33.079 59.14a2.266 2.266 0 11-4.533 0 2.266 2.266 0 014.533 0z" fill="#fff"/><path d="M7.79 66.604c3.11 3.434 2.981 6.178 2.768 10.72-.065 1.362-.138 2.907-.11 4.577.133 8.09 6.064 9.437 10.829 10.517 4.053.92 7.884 1.79 10.182 5.796 3.933 6.978 7.275 12.547 15.014 10.068 2.628-.843 4.509-1.64 6.02-2.281 2.27-.963 3.52-1.493 5.508-1.493 1.986 0 3.237.53 5.507 1.493 1.511.641 3.392 1.438 6.02 2.281 3.675 1.178 6.656.537 9.187-1.701 2.32-2.053 4.13-5.406 5.827-8.367 2.298-4.006 6.129-4.876 10.182-5.796 4.765-1.08 10.696-2.426 10.827-10.517.028-1.672-.045-3.215-.108-4.576-.213-4.543-.342-7.284 2.768-10.719 4.722-5.213 7.794-8.464 7.789-12.06.007-3.838-3.774-7.624-7.789-12.055-3.11-3.437-2.981-6.179-2.768-10.721.063-1.362.136-2.907.108-4.577-.131-8.09-6.06-9.436-10.827-10.517-4.053-.92-7.884-1.79-10.184-5.795-1.704-2.973-3.528-6.335-5.827-8.367C76.119.22 73.115-.334 69.528.814c-2.63.843-4.513 1.64-6.024 2.282-2.27.963-3.519 1.493-5.501 1.493-1.987 0-3.236-.53-5.506-1.493-1.51-.641-3.394-1.439-6.024-2.281-3.587-1.151-6.59-.596-9.185 1.696-2.32 2.05-4.132 5.409-5.83 8.367-2.297 4.004-6.275 4.876-10.49 5.796-4.931 1.078-11.069 2.422-11.2 10.517-.032 2.03.131 3.854.276 5.462.374 4.165.6 6.677-2.257 9.835C3.141 47.62-.01 50.937.001 54.54c-.014 3.81 3.659 7.505 7.789 12.064zm3.357-21.075c4.19-4.629 3.811-8.832 3.41-13.281-.14-1.57-.288-3.195-.258-4.985.07-4.327 2.392-5.016 7.637-6.164 4.525-.99 10.157-2.22 13.454-7.969 3.33-5.412 4.828-9.567 9.701-8.006 2.433.781 4.135 1.502 5.637 2.139 2.44 1.033 4.366 1.85 7.273 1.853 2.904 0 4.83-.818 7.27-1.853 1.502-.637 3.204-1.36 5.639-2.14 4.862-1.558 6.319 2.513 9.7 8.008 3.287 5.73 8.733 6.966 13.11 7.959 5.141 1.166 7.228 1.814 7.3 6.173.025 1.527-.041 2.932-.104 4.291-.22 4.706-.428 9.151 3.935 13.975 3.342 3.69 6.62 7.168 6.616 9.008v.011c.004 1.99-3.91 6.027-6.616 9.013-4.366 4.821-4.155 9.266-3.935 13.972.063 1.36.129 2.764.104 4.291-.072 4.36-2.161 5.007-7.3 6.174-4.377.992-9.823 2.23-13.109 7.96l-.305.532c-3.832 6.695-5.406 8.749-9.394 7.474-2.43-.782-4.132-1.502-5.634-2.139-2.44-1.035-4.368-1.853-7.278-1.853-2.909 0-4.837.818-7.277 1.853-1.5.637-3.201 1.357-5.632 2.137-4.853 1.554-6.3-2.481-9.7-8.007-3.287-5.73-8.733-6.967-13.11-7.96-5.141-1.166-7.23-1.812-7.302-6.173-.025-1.527.04-2.93.104-4.289.222-4.708.43-9.153-3.936-13.974-3.05-3.367-6.622-7.114-6.615-9.024-.007-1.98 3.917-6.024 6.615-9.006z" fill="#00485A"/><path d="M48.938 38.75a6.805 6.805 0 00-6.797 6.797 6.805 6.805 0 006.797 6.797 6.805 6.805 0 006.797-6.797 6.805 6.805 0 00-6.797-6.797zm0 9.062a2.266 2.266 0 112.266-2.266 2.268 2.268 0 01-2.266 2.266zm11.328 15.86a6.805 6.805 0 006.797 6.797 6.805 6.805 0 006.797-6.797 6.805 6.805 0 00-6.797-6.797 6.805 6.805 0 00-6.797 6.797zm9.063 0a2.268 2.268 0 01-2.266 2.265 2.266 2.266 0 112.266-2.266zM47.68 70.088a2.267 2.267 0 003.143-.628l18.125-27.187a2.266 2.266 0 10-3.77-2.515L47.053 66.945a2.268 2.268 0 00.627 3.143z" fill="#FFCC34"/><path d="M58 93.125c21.238 0 38.516-17.278 38.516-38.516S79.238 16.093 58 16.093c-21.237 0-38.515 17.278-38.515 38.516S36.763 93.125 58 93.125zm0-72.5c18.74 0 33.985 15.245 33.985 33.984 0 18.74-15.245 33.985-33.984 33.985-18.74 0-33.985-15.246-33.985-33.985 0-18.739 15.245-33.984 33.985-33.984z" fill="#00485A"/><path d="M53.845 30.034a2.266 2.266 0 00-.752-4.468c-12.359 2.08-22.06 11.784-24.138 24.143a2.267 2.267 0 002.236 2.641 2.267 2.267 0 002.232-1.89 24.916 24.916 0 0120.422-20.426z" fill="#fff"/></svg>