<svg width="88" height="83" fill="none" xmlns="http://www.w3.org/2000/svg"><path d="M63.846 40.137l2.205-12.284-2.835-4.305-9.45-.315-14.383 2.73 1.47 15.644 8.4.42-1.996 4.724 11.024-.314 5.565-6.3z" fill="#fff"/><path d="M64.476 19.244l-4.62-3.675-13.754-.525-5.984 4.725-1.05 5.04 7.034 2.624h3.99l11.444-2.624 4.41 1.68-1.47-7.245z" fill="#FFCC34"/><path d="M24.474 75.205L10.405 55.36l-8.924 6.93 13.964 19.108 9.03-6.194zm34.647-18.899l11.654-5.774-2.94-2.94-5.669-1.89-13.439 1.89-12.599 1.89-4.2 6.824h27.193z" fill="#00728F"/><path d="M32.138 42.027h6.405l9.659.525 1.89.945-4.305 4.305-6.09.42-3.569.42-4.305 7.874 27.718.42 18.794-9.134h5.774l1.05 3.885-1.68 3.15 1.68 3.884-2.73 3.045-15.644 3.57-6.824 4.304L52.087 73l-17.429.42-12.074-2.415-10.499-14.699 20.053-14.279z" fill="#fff"/><path d="M70.916 52.856a1.43 1.43 0 01-1.432-1.432v-.544c0-1.675-2.39-3.318-4.824-3.318h-5.858a1.431 1.431 0 110-2.864h5.858c3.637 0 7.688 2.539 7.688 6.182v.544c0 .79-.643 1.432-1.432 1.432zm-5.728-17.473c-.04 0-.08 0-.118-.004a1.43 1.43 0 01-1.31-1.543l.716-8.744c-.007-4.934-3.822-9.046-8.513-9.046h-7.335c-4.69 0-8.508 4.11-8.508 9.162l.712 8.626a1.43 1.43 0 11-2.854.233l-.716-8.744c-.004-6.749 5.096-12.145 11.368-12.145h7.335c6.272 0 11.373 5.396 11.373 12.028l-.72 8.86a1.437 1.437 0 01-1.43 1.317z" fill="#00485A"/><path d="M52.294 48.992a15.73 15.73 0 01-4.949-.79 1.43 1.43 0 01-.9-1.813 1.436 1.436 0 011.811-.903c1.25.42 2.646.642 4.038.642 3.247 0 6.251-1.176 7.839-3.068 2.165-2.582 3.62-6.268 3.62-9.168V28.12c0-.752-.153-1.256-.458-1.489-1.08-.84-4.51.032-7.536.798-2.767.704-5.626 1.43-8.217 1.43-3.223 0-5.394-1.159-6.694-1.957a38.7 38.7 0 00-.015 1.218v5.772c0 2.09.78 4.691 2.083 6.957a1.433 1.433 0 01-2.484 1.428c-1.566-2.721-2.467-5.779-2.467-8.385V28.12c0-2.436.055-3.845 1.189-4.468 1.01-.567 1.967.042 2.81.569 1.118.707 2.81 1.772 5.576 1.772 2.232 0 4.916-.682 7.511-1.342 4.196-1.064 7.814-1.986 10.002-.283 1.037.806 1.564 2.068 1.564 3.752v5.772c0 3.58-1.684 7.902-4.29 11.01-2.15 2.562-5.902 4.09-10.033 4.09zm13.072 17.744a1.433 1.433 0 01-.31-2.83l17-3.807c.632-.111 1.125-.426 1.455-.897.33-.468.458-1.04.357-1.604a2.168 2.168 0 00-1.373-1.648 1.432 1.432 0 11.993-2.686 5.036 5.036 0 013.2 3.838 4.987 4.987 0 01-.834 3.747 4.988 4.988 0 01-3.24 2.06L65.681 66.7a1.355 1.355 0 01-.315.035z" fill="#00485A"/><path d="M45.985 74.778H35.103c-.105 0-.208-.01-.31-.033L21.902 71.88a1.432 1.432 0 01.62-2.797l12.739 2.83h10.724c5.59 0 11.072-1.923 15.44-5.415.038-.032.08-.059.12-.086l21.201-13.634c.07-.045.141-.084.217-.116.529-.225.936-.64 1.152-1.172a2.135 2.135 0 00-.012-1.644 2.153 2.153 0 00-2.818-1.14L60.003 57.48a1.43 1.43 0 01-.546.107H32.241a1.43 1.43 0 01-1.226-2.17l4.296-7.161c.258-.43.725-.696 1.229-.696h5.73a5.74 5.74 0 005.548-4.298H32.71L13.168 57.593a1.437 1.437 0 01-2.004-.308 1.435 1.435 0 01.309-2.003l19.919-14.607c.246-.18.542-.277.846-.277h17.19c.791 0 1.431.64 1.431 1.432 0 4.74-3.855 8.595-8.594 8.595h-4.918l-2.579 4.296h24.403l21.006-8.66c2.533-1.077 5.48.12 6.56 2.663a4.98 4.98 0 01.034 3.836 4.985 4.985 0 01-2.568 2.686L63.157 68.779a27.686 27.686 0 01-17.172 6z" fill="#00485A"/><path d="M15.497 82.884a1.436 1.436 0 01-1.161-.594L.271 62.778A1.42 1.42 0 01.02 61.71c.061-.373.27-.71.576-.932l9.296-6.7a1.435 1.435 0 011.999.325l14.064 19.51a1.43 1.43 0 01-.323 2l-9.294 6.703a1.476 1.476 0 01-.84.267zM3.43 62.266L15.821 79.45l6.971-5.025-12.391-17.187-6.972 5.027z" fill="#00485A"/><path d="M19.347 73.346a2.865 2.865 0 11-5.73-.001 2.865 2.865 0 015.73.001zm32.947-64.46c-.791 0-1.432-.64-1.432-1.432v-5.73a1.431 1.431 0 112.864 0v5.73a1.435 1.435 0 01-1.432 1.432zm5.729-.001a1.432 1.432 0 01-1.012-2.444l5.014-5.014a1.432 1.432 0 112.024 2.026l-5.012 5.012c-.281.28-.647.42-1.014.42zm-11.459.001a1.42 1.42 0 01-1.012-.42l-4.298-4.297a1.435 1.435 0 010-2.026 1.435 1.435 0 012.026 0l4.298 4.298a1.432 1.432 0 01-1.014 2.445z" fill="#00485A"/></svg>