<svg width="66" height="88" fill="none" xmlns="http://www.w3.org/2000/svg"><path d="M3.059 78.523l13.25-23.044 6.463 8.428 4.524-1.066-12.28 23.044-3.447-8.962-8.51 1.6zm48.906 7.362L38.392 63.907h5.601l5.279-8.428 14.111 23.685-8.402-1.494-3.016 8.215z" fill="#fff"/><path d="M23.941 8.214l7.733-6.1 10.42 6.1 11.385 1.391 2.792 10.703 7.734 7.598-5.048 10.06.537 11.024-9.667 4.388-7.734 10.168-9.022-3.64-11.708 3.64-6.981-10.168-9.56-4.388 1.719-10.274-4.726-11.88 7.518-7.492L12.341 9.07l11.6-.856z" fill="#FFCC34"/><ellipse cx="32.911" cy="32.519" rx="21.145" ry="20.477" fill="#00728F"/><path d="M29.614 28.63l2.15-4.61.751-.858c1.039 1.644 3.159 4.974 3.33 5.146.173.171 3.654 1.215 5.373 1.715l-3.223 3.645 1.074 7.182-5.802-3.108-6.876 3.108.752-7.504-3.008-3.644 5.48-1.073z" fill="#FFCC34" stroke="#000"/><path d="M64.633 31.121a5.264 5.264 0 00-1.16-6.625l-5.821-4.931a1.845 1.845 0 01-.617-1.083l-1.317-7.455a5.216 5.216 0 00-5.136-4.335H42.98a1.75 1.75 0 01-1.122-.407l-5.82-5.039-.016-.013a5.19 5.19 0 00-6.717 0c-.004.005-.01.009-.015.013l-5.81 5.026c-.318.27-.72.418-1.133.418h-7.602a5.215 5.215 0 00-5.133 4.333l-1.322 7.46c-.073.422-.29.803-.612 1.078l-5.824 4.933a5.267 5.267 0 00-1.16 6.625l3.801 6.649c.213.373.29.81.215 1.233l-1.32 7.56c-.435 2.508.97 4.961 3.347 5.831l7.142 2.627c.142.054.275.122.4.21L1.042 78.393c-.754 1.321.464 2.901 1.938 2.507l7.732-2.067 2.071 7.714c.396 1.473 2.39 1.743 3.155.405L29.6 63.048l2.464-.904a1.74 1.74 0 011.201 0l2.65.973L50.576 87c.786 1.282 2.736 1.005 3.127-.453l2.071-7.714 7.731 2.067c1.494.4 2.72-1.233 1.91-2.554L51.174 55.148c.088-.052.18-.097.276-.131l7.14-2.627a5.24 5.24 0 003.348-5.834l-1.32-7.56c-.073-.422.003-.86.215-1.232l3.801-6.643zm-49.61 50.51l-1.436-5.34a1.72 1.72 0 00-2.106-1.215l-5.413 1.448 10.29-18.008 2.255 3.94a5.19 5.19 0 005.986 2.42L15.022 81.63zm45.212-5.154l-5.232-1.398a1.72 1.72 0 00-2.106 1.213l-1.48 5.515L41.08 64.972a5.199 5.199 0 005.636-2.51l2.368-4.143 11.15 18.158zm-2.39-40.41a5.285 5.285 0 00-.616 3.523l1.32 7.56a1.81 1.81 0 01-1.148 2.024l-7.14 2.627a5.224 5.224 0 00-2.594 2.094c-.071.093-.132.19-.18.292l-3.76 6.574a1.76 1.76 0 01-2.133.793c-.226-.084-6.962-2.56-7.145-2.626a5.209 5.209 0 00-3.577 0c-.138.049-3.185 1.17-7.14 2.626a1.761 1.761 0 01-2.137-.793l-3.537-6.184a1.723 1.723 0 00-.51-.853 5.226 5.226 0 00-2.483-1.919l-7.14-2.626a1.814 1.814 0 01-1.148-2.027l1.32-7.557a5.286 5.286 0 00-.615-3.523l-3.801-6.649c-.44-.77-.27-1.74.4-2.309l5.823-4.933a5.262 5.262 0 001.775-3.1L13 11.62a1.789 1.789 0 011.75-1.496h7.602c1.227 0 2.42-.44 3.371-1.246l5.813-5.03a1.754 1.754 0 012.258 0l5.825 5.04a5.206 5.206 0 003.361 1.236h7.6c.862 0 1.597.63 1.75 1.498l1.319 7.457a5.27 5.27 0 001.777 3.1l5.821 4.932c.672.57.84 1.542.4 2.311l-3.802 6.645z" fill="#00485A"/><path d="M18.913 18.846a1.715 1.715 0 100-3.43c-.948 0-1.72.765-1.72 1.715 0 .948.77 1.715 1.72 1.715z" fill="#00485A"/><path d="M32.666 10.247a22.24 22.24 0 00-8.55 1.692 1.714 1.714 0 00-.93 2.24 1.721 1.721 0 002.245.929 18.854 18.854 0 017.233-1.43c10.426 0 18.91 8.464 18.91 18.867s-8.482 18.868-18.91 18.868c-10.426 0-18.91-8.465-18.91-18.868 0-3.227.832-6.413 2.403-9.21a1.714 1.714 0 00-.66-2.335 1.722 1.722 0 00-2.34.658 22.284 22.284 0 00-2.84 10.89c0 12.293 10.024 22.297 22.347 22.297 12.321 0 22.347-10.002 22.347-22.298 0-12.298-10.024-22.3-22.345-22.3z" fill="#00485A"/><path d="M25.915 34.758l-1.006 5.846a1.71 1.71 0 00.683 1.677 1.72 1.72 0 001.81.13l5.262-2.76 5.264 2.76a1.723 1.723 0 001.81-.13c.53-.384.795-1.033.683-1.677l-1.006-5.846 4.257-4.14a1.714 1.714 0 00-.952-2.927l-5.883-.854-2.63-5.319a1.72 1.72 0 00-3.084 0l-2.63 5.32-5.883.853a1.717 1.717 0 00-.954 2.926l4.259 4.14zm3.966-4.655a1.723 1.723 0 001.296-.94l1.487-3.01 1.489 3.01c.25.507.733.858 1.294.94l3.33.482-2.41 2.344a1.72 1.72 0 00-.495 1.518l.57 3.31-2.98-1.563a1.721 1.721 0 00-1.6 0l-2.978 1.563.57-3.31a1.708 1.708 0 00-.495-1.518l-2.41-2.344 3.332-.482z" fill="#00485A"/></svg>