<svg width="88" height="88" fill="none" xmlns="http://www.w3.org/2000/svg"><path d="M69.89 67.38l3.043-5.968 4.212.468 5.382 4.095 2.809 6.202v13.456h-43.88V70.656l4.681-6.904 7.489-2.808 2.223 6.903 6.319-3.042 7.722 2.574zM30.224 44.562l3.042-5.968 4.213.468 5.382 4.096 2.808 6.201v13.457H1.791V47.838l4.68-6.903 7.489-2.809 2.223 6.904 6.318-3.042 7.723 2.574z" fill="#00728F"/><path d="M15.481 14.374l3.16-2.106 5.616 3.159 8.073 2.223 1.288 6.67-2.34 7.956-2.575 2.574.351 3.043 4.564 1.053-2.575 6.084-8.073-3.042-6.202 3.042-2.574-6.084 4.212-1.053 1.17-3.862-4.914-4.095-.468-10.765 1.287-4.797zm38.496 22.934l3.394-2.926 3.159 2.224 9.478 1.287 3.159 2.691 5.148 2.808-.819 4.68-4.095 1.288-5.148 7.722.35 3.043 3.979 1.17-2.106 6.201-7.02-2.691-7.022 2.691-3.042-6.201 5.032-2.224v-1.755l-5.032-7.02-5.616-3.861v-2.458l2.223-2.34 3.393-.702.585-3.627zM24.14 57.433v-5.617h8.191v5.617h-8.19zm39.082 22.934v-5.5l8.542-.468v5.968h-8.542z" fill="#fff"/><path d="M15.833 13.086l3.978-1.99 2.809 3.862 5.616.702 4.798 2.457.468 8.074-1.99 6.202h3.277l4.446-2.809-.468-18.487-5.265-6.904-9.01-2.574L13.96 4.661 8.578 12.15v17.434l6.319 2.809-.351-15.797 1.287-3.51zm34.05 16.498l6.552-3.393h.703l6.084-2.457 2.457 1.287 5.5 1.17 5.733 4.564 2.34 7.371-1.755 3.745-4.797-1.756-1.521-1.989L61.7 36.84l-4.563-2.574-3.979 6.904-4.095.702-1.521-5.032 2.34-7.255z" fill="#FFCC34"/><path d="M15.833 13.086l3.978-1.99 2.809 3.862 5.616.702 4.798 2.457.468 8.074-1.99 6.202h3.277l4.446-2.809-.468-18.487-5.265-6.904-9.01-2.574L13.96 4.661 8.578 12.15v17.434l6.319 2.809-.351-15.797 1.287-3.51zm34.05 16.498l6.552-3.393h.703l6.084-2.457 2.457 1.287 5.5 1.17 5.733 4.564 2.34 7.371-1.755 3.745-4.797-1.756-1.521-1.989L61.7 36.84l-4.563-2.574-3.979 6.904-4.095.702-1.521-5.032 2.34-7.255z" stroke="#000"/><path d="M80.41 62.224a14.816 14.816 0 00-5.819-2.303l-4.731-.789-.644-1.933a11.251 11.251 0 004.826-6.648h.372a5.624 5.624 0 005.616-5.617c0-1.03-.3-1.982-.786-2.813.51-1.357.786-2.766.786-4.208 0-7.647-4.683-12.634-12.857-13.77a5.595 5.595 0 00-3.992-1.675h-.44a7.945 7.945 0 00-5.228 1.964c-7.21 1.547-11.182 6.316-11.182 13.482 0 1.441.274 2.85.784 4.207a5.569 5.569 0 00-.784 2.813c0 .485.082.946.197 1.395a14.85 14.85 0 00-11.25-8.877l-4.731-.788-.644-1.933c.485-.309.94-.655 1.367-1.032h1.261c2.935 0 5.696-1.142 7.774-3.22l.412-.412V16.849C40.717 7.56 33.158 0 23.867 0 14.578 0 7.019 7.559 7.019 16.85v13.217l.412.412a10.91 10.91 0 007.774 3.22h1.262c.43.377.884.723 1.366 1.032l-.643 1.933-4.732.788a14.802 14.802 0 00-5.818 2.303A14.88 14.88 0 000 52.158V64.59h43.2a14.872 14.872 0 00-3.885 10.035v12.431h47.74v-12.43a14.9 14.9 0 00-6.646-12.401zm-9.565-.08l-1.416 3.435-3.41-1.364 3.136-2.352 1.69.28zm-13.646-.28l3.136 2.351-3.41 1.364-1.415-3.435 1.69-.28zm9.941-2.002l-3.964 2.972-3.964-2.974.482-1.449a11.14 11.14 0 003.482.562c1.215 0 2.385-.201 3.482-.56l.482 1.45zm4.463-12.12c0 4.648-3.78 8.425-8.425 8.425-4.647 0-8.424-3.777-8.424-8.425v-6.894a5.58 5.58 0 012.433-4.629 7.982 7.982 0 004.887 2.193l6.962.58a2.785 2.785 0 012.567 2.797v5.953zm2.808 0v-5.616a2.81 2.81 0 012.808 2.808 2.812 2.812 0 01-2.808 2.808zM62.738 25.277h.44a2.81 2.81 0 012.809 2.808 2.81 2.81 0 01-2.809 2.808H60.37V33.7h2.808a5.624 5.624 0 005.617-5.616c0-.272-.045-.536-.08-.798 6.941 1.682 8.504 6.587 8.504 10.627 0 .695-.084 1.38-.24 2.054-.773-.4-1.639-.65-2.568-.65h-.587a5.55 5.55 0 00-4.556-3.124l-6.962-.58a5.143 5.143 0 01-4.744-5.159 5.182 5.182 0 015.176-5.178zm-7.643 2.864a7.954 7.954 0 00-.344 2.312c0 1.252.281 2.436.789 3.49a8.345 8.345 0 00-3.443 5.375h-.154c-.929 0-1.795.248-2.567.65a9.047 9.047 0 01-.241-2.055c.002-3.42 1.137-7.605 5.96-9.772zm-3.15 13.985v5.616a2.81 2.81 0 01-2.808-2.808 2.81 2.81 0 012.808-2.808zm0 8.425h.37a11.244 11.244 0 004.826 6.648l-.644 1.933-4.732.789a14.8 14.8 0 00-4.032 1.299v-9.06c0-1.64-.292-3.231-.798-4.74.92 1.846 2.808 3.13 5.01 3.13zM31.53 39.678l-1.415 3.436-3.41-1.365 3.136-2.354 1.69.283zm.759-14.401c0 4.647-3.78 8.424-8.425 8.424-4.645 0-8.425-3.777-8.425-8.425v-6.894a5.585 5.585 0 013.106-5.024l.1-.05a5.625 5.625 0 005.221 3.544h4.213a4.216 4.216 0 014.212 4.212v4.212h-.002zM9.822 16.851c0-7.744 6.297-14.041 14.041-14.041 7.744 0 14.041 6.297 14.041 14.04v12.03a8.077 8.077 0 01-4.268 1.914 11.161 11.161 0 001.46-5.519v-4.212c0-3.87-3.15-7.02-7.02-7.02h-4.213a2.81 2.81 0 01-2.808-2.809 2.81 2.81 0 012.808-2.808V5.619a5.626 5.626 0 00-5.544 4.713l-1.032.517a8.375 8.375 0 00-4.66 7.536v6.894c0 2.005.537 3.887 1.461 5.518a8.084 8.084 0 01-4.269-1.914V16.852h.003zm14.041 19.657c1.217 0 2.385-.2 3.482-.559l.485 1.446-3.965 2.972-3.964-2.974.482-1.449a11.04 11.04 0 003.48.564zm-5.98 2.888l3.137 2.352-3.41 1.364-1.416-3.435 1.69-.28zM2.802 52.161c0-4.056 2.015-7.819 5.387-10.068a11.981 11.981 0 014.723-1.867l.442-.073 2.722 6.602 6.386-2.553v3.543h2.809v-3.543l6.384 2.553 2.721-6.602.44.073c1.701.283 3.29.91 4.723 1.867a12.074 12.074 0 015.39 10.068v9.623H39.31V50.55h-2.809v11.233H11.228V50.55H8.42v11.233H2.804V52.16H2.8zm81.44 32.088h-5.617V73.016h-2.809V84.25H50.541V73.016h-2.808V84.25h-5.616v-9.622c0-4.056 2.015-7.819 5.387-10.068a11.995 11.995 0 014.722-1.867l.443-.073 2.721 6.602 6.387-2.553v3.543h2.808v-3.543l6.384 2.553 2.722-6.602.44.073c1.7.283 3.287.91 4.722 1.867a12.074 12.074 0 015.39 10.068v9.623h-.003z" fill="#00485A"/><path d="M65.988 48.814a3.122 3.122 0 01-2.809 1.734 3.12 3.12 0 01-2.808-1.734l-.147-.297-2.511 1.256.147.295a5.916 5.916 0 005.32 3.288 5.912 5.912 0 005.319-3.288l.147-.295-2.511-1.256-.147.297zm-5.616-5.284a1.405 1.405 0 01-2.809 0 1.405 1.405 0 012.809 0zm8.424 0a1.405 1.405 0 01-2.809 0 1.405 1.405 0 012.809 0zm-7.02 37.911h11.232v-8.424H61.776v8.424zm2.808-5.616H70.2v2.808h-5.616v-2.808zM26.672 26.349a3.122 3.122 0 01-2.808 1.734 3.123 3.123 0 01-2.809-1.734l-.147-.298-2.511 1.257.147.297a5.916 5.916 0 005.32 3.288 5.912 5.912 0 005.319-3.288l.147-.297-2.51-1.257-.148.298zm-5.616-5.285a1.405 1.405 0 01-2.808 0 1.405 1.405 0 012.808 0zm8.424 0a1.405 1.405 0 01-2.808 0 1.405 1.405 0 012.808 0zm4.213 29.487H22.46v8.425h11.233v-8.425zm-2.809 5.617h-5.616v-2.809h5.616v2.809z" fill="#00485A"/></svg>