<svg width="82" height="82" fill="none" xmlns="http://www.w3.org/2000/svg"><path d="M55.748 32.186h20.527v14.173H55.748V32.186zm-14.661-11.73h8.798V50.27h-8.797V20.456z" fill="#FFCC34"/><path d="M17.629 18.012h19.06v5.865H17.63v-5.865zm7.821 6.843h5.865v7.33H25.45v-7.33zm-5.377 8.797h15.64V46.36h-15.64V33.652zm-4.399 14.172h64.512v31.768H15.674V47.824z" fill="#fff"/><path d="M9.81 74.705V42.449h21.014v24.78H25.53V47.405H20.4v26.544l-10.592.756zm29.323-26.881H51.35v17.594H39.133V47.824zm14.662-.488h26.392v21.993H53.795V47.336z" fill="#00728F"/><path d="M1.433 41.356h8.106v31.747H1.433V41.356zM12.41 18.897h5.234v3.884H12.41v-3.884zM22.711 1.673h45.763v4.39H22.71v-4.39zM62.9 20.586h7.262v4.39H62.9v-4.39z" fill="#FFCC34"/><path d="M62.9 38.994h7.262v7.599H62.9v-7.6zM22.54 6.908h45.932v5.741H22.54V6.908z" fill="#fff"/><path d="M42.13 12.65h8.105v7.936H42.13V12.65z" fill="#00728F"/><path d="M62.564 25.99h8.106v5.066h-8.106V25.99z" fill="#fff"/><path d="M79.706 45.931h-1.35v-1.827a7.162 7.162 0 00-.947-3.576 7.15 7.15 0 00.946-3.577v-.159a6.928 6.928 0 00-6.754-7.072v-6.754a4.054 4.054 0 00-4.053-4.053h-2.702a4.054 4.054 0 00-4.053 4.053v6.754a6.928 6.928 0 00-6.754 7.072v.16a7.16 7.16 0 00.945 3.576 7.16 7.16 0 00-.945 3.576v1.827h-2.702V13.51h17.562a1.35 1.35 0 001.35-1.35V1.35A1.35 1.35 0 0068.9 0H22.967a1.35 1.35 0 00-1.35 1.35v10.808a1.35 1.35 0 001.35 1.351H40.53v32.422h-2.702v-9.456a5.404 5.404 0 00-5.403-5.404v-5.404h1.35a4.054 4.054 0 004.053-4.052v-1.351a4.054 4.054 0 00-4.052-4.053H17.564c-.063.009-.125.02-.186.037a.987.987 0 00-.142 0L11.832 17.6a1.352 1.352 0 00-1.023 1.314v4.053c0 .62.422 1.16 1.023 1.31l5.404 1.351c.108.027.218.04.328.04h1.35v2.143l-2.306 2.307a1.35 1.35 0 101.876 1.944c.012-.01.022-.022.034-.034l2.702-2.702a1.35 1.35 0 00.395-.956v-2.701h2.702v5.403a5.404 5.404 0 00-5.404 5.404v4.053H1.35A1.35 1.35 0 000 41.878v32.423a1.35 1.35 0 001.35 1.35h12.16v4.053a1.35 1.35 0 001.35 1.351h64.844a1.35 1.35 0 001.351-1.35V47.281a1.348 1.348 0 00-1.349-1.35zM16.213 22.586l-2.702-.676v-1.942l2.702-.675v3.293zM8.107 72.95H2.704v-2.702h1.35a1.35 1.35 0 100-2.702h-1.35v-2.702h1.35a1.35 1.35 0 100-2.702h-1.35v-2.701h1.35a1.35 1.35 0 100-2.702h-1.35v-2.702h1.35a1.35 1.35 0 100-2.702h-1.35v-2.702h1.35a1.35 1.35 0 100-2.702h-1.35V43.23h5.403v29.72zm55.388-49.984a1.35 1.35 0 011.351-1.351h2.702c.746 0 1.35.604 1.35 1.35v1.352h-5.403v-1.351zm0 4.052h5.404v2.702h-5.404v-2.702zM56.74 44.103a4.52 4.52 0 01.946-2.758 1.353 1.353 0 000-1.638 4.52 4.52 0 01-.946-2.758v-.158a4.225 4.225 0 014.053-4.37h10.808a4.225 4.225 0 014.052 4.37v.158a4.52 4.52 0 01-.945 2.758 1.353 1.353 0 000 1.638c.611.789.944 1.76.945 2.758v1.827h-4.052v-4.053a5.404 5.404 0 00-10.808 0v4.053H56.74v-1.827zm12.16-2.224v4.052h-5.404V41.88a2.701 2.701 0 115.404 0zM24.319 2.702h43.229v2.702h-43.23V2.702zm0 8.105V8.106h43.229v2.701h-43.23zm18.912 8.106v-5.404h5.404v5.404H43.23zm5.404 2.702V45.93H43.23V21.615h5.404zm-8.106 27.018h10.808v14.185a2.026 2.026 0 11-4.053 0V52.686a1.35 1.35 0 10-2.702 0v10.132a2.026 2.026 0 01-2.51 1.972 2.159 2.159 0 01-1.543-2.146v-14.01zM18.915 22.966v-4.053h14.86c.746 0 1.35.604 1.35 1.35v1.352a1.35 1.35 0 01-1.35 1.35h-14.86zm10.807 2.701v5.404H27.02v-5.404h2.702zm-8.106 10.808a2.701 2.701 0 012.702-2.702h8.106a2.701 2.701 0 012.702 2.702v9.456h-2.702V41.88a1.35 1.35 0 00-1.351-1.351h-9.457v-4.053zM10.81 72.95V43.23h18.913v22.965H27.02V47.282a1.35 1.35 0 00-1.35-1.35h-5.405a1.35 1.35 0 00-1.35 1.35V72.95h-8.106zm67.546 5.403H16.213v-2.701h4.052a1.35 1.35 0 001.351-1.351V48.633h2.702v18.913c0 .746.605 1.351 1.351 1.351h5.404a1.35 1.35 0 001.35-1.35V48.632h5.404v14.011a4.85 4.85 0 003.66 4.784 4.74 4.74 0 004.41-1.267l.036-.037a4.685 4.685 0 005.422.946 4.718 4.718 0 008.052 3.146l.037-.039a4.719 4.719 0 006.675.08l.08-.08a4.719 4.719 0 006.675.08l.08-.08a4.668 4.668 0 005.403.946v7.23h-.002zm0-11.482a2.026 2.026 0 11-4.053 0V56.739a1.35 1.35 0 10-2.701 0V66.87a2.026 2.026 0 11-4.053 0V56.739a1.35 1.35 0 10-2.702 0V66.87a2.026 2.026 0 11-4.053 0V56.739a1.35 1.35 0 10-2.702 0V66.87a2.026 2.026 0 11-4.052 0V48.633h24.316v18.238z" fill="#00485A"/></svg>