<svg width="96" height="106" fill="none" xmlns="http://www.w3.org/2000/svg"><path fill="#00728F" d="M36.976 58.913L23.71 82.43 15 77.516 28.266 54z"/><path d="M36 62.485L52.5 63l-2 11.5 2.5 2 6.5-4 23 13.5-2 5H76l-3 4.5-5.5 5L61 99l-3.5 5.5L52 101l-.5-4-3.5-3-2-6-3.5-1-3.5-4-4.5 1.5-9-4L36 62.485z" fill="#FFCC34"/><path d="M58 3l9.5 8 7.5 8-15.5-.5L58 3z" fill="#00728F"/><path d="M64.346 28.53H13.584a1.56 1.56 0 100 3.118h50.762a1.56 1.56 0 100-3.119zm-50.762-7.698h25.38a1.56 1.56 0 100-3.12h-25.38a1.56 1.56 0 100 3.12zm50.762 17.282H13.584a1.56 1.56 0 100 3.118h50.762a1.56 1.56 0 100-3.118z" fill="#00485A"/><path d="M25.147 95.166H8.902a4.841 4.841 0 01-4.836-4.836V7.954A4.841 4.841 0 018.902 3.12h46.8c.152 0 .3.013.448.033v9.725c0 4.386 3.568 7.955 7.954 7.955h9.725c.02.147.034.296.034.447v26.554a1.56 1.56 0 103.118 0V21.28c0-1.71-.666-3.318-1.875-4.528L60.23 1.876A6.362 6.362 0 0055.703 0H8.902C4.516 0 .948 3.568.948 7.954V90.33c0 4.386 3.568 7.954 7.954 7.954h16.245a1.56 1.56 0 100-3.118zm46.51-77.453h-7.553a4.842 4.842 0 01-4.835-4.836V5.324l12.389 12.39z" fill="#00485A"/><path d="M94.573 76.338l-13.212-22.3a3.418 3.418 0 00-4.685-1.2l-3.214 1.903c-2.495 1.478-3.549 4.469-2.693 7.119a4.78 4.78 0 01-3.363-.036c-2.537-.799-4.466-2.405-7.652-1.599-5.41 1.377-5.245 1.308-5.735 1.476-3.167-1.803-5.071-2.34-8.434-1.04l-2.997 1.16a4.796 4.796 0 01-4.2-.351l-.818-.482a6.092 6.092 0 00-2.907-6.246l-3.214-1.904a3.424 3.424 0 00-4.685 1.2l-13.213 22.3a3.418 3.418 0 001.2 4.686l3.213 1.904a6.06 6.06 0 003.097.85 6.137 6.137 0 003.331-.984l.67.395-1.414 1.97a5.226 5.226 0 005.058 8.21 5.212 5.212 0 002.101 3.366 5.182 5.182 0 003.86.916 5.222 5.222 0 007.213 3.922 5.203 5.203 0 001.825 2.363 5.233 5.233 0 007.059-.894l3.758 2.226a5.226 5.226 0 007.164-1.834c.377-.636.61-1.329.696-2.041l.009.005a5.236 5.236 0 007.164-1.834 5.202 5.202 0 00.716-2.28 5.24 5.24 0 005.778-2.405 5.2 5.2 0 00.701-2.117 5.238 5.238 0 006.407-2.203 5.196 5.196 0 00.568-3.962 5.207 5.207 0 00-1.063-2.071l2.07-1.21a6.083 6.083 0 005.428-.389l3.213-1.903a3.417 3.417 0 001.2-4.686zm-75.02 3.907L16.34 78.34a.302.302 0 01-.105-.413l13.212-22.302a.302.302 0 01.413-.105l3.213 1.903a2.977 2.977 0 011.044 4.08L23.633 79.2a2.98 2.98 0 01-4.08 1.044zm7.111 9.677a2.109 2.109 0 01-.483-2.945l2.079-2.895a2.116 2.116 0 012.944-.483 2.112 2.112 0 01.484 2.944l-2.079 2.895c-.679.946-2 1.162-2.945.484zm5.962 4.28a2.113 2.113 0 01-.484-2.945l2.079-2.895 2.294-3.195a2.096 2.096 0 011.718-.88c.438 0 .863.136 1.226.396.458.33.76.816.851 1.372a2.095 2.095 0 01-.368 1.573l-4.372 6.09a2.108 2.108 0 01-2.944.484zm5.961 4.28a2.112 2.112 0 01-.484-2.944v-.001l4.373-6.09c.678-.945 2-1.162 2.944-.484.945.678 1.162 2 .484 2.945l-1.943 2.706-2.43 3.384a2.112 2.112 0 01-2.944.483zm6.937 2.92a2.112 2.112 0 01-.485-2.943l1.455-2.026c.679-.946 2-1.162 2.945-.484.945.678 1.162 2 .483 2.945l-1.454 2.024a2.11 2.11 0 01-2.944.484zm34.95-12.433a2.113 2.113 0 01-2.89.74c-1.697-1.004-12.637-7.485-13.804-8.177a1.56 1.56 0 10-1.59 2.683l10.436 6.183a2.11 2.11 0 11-2.152 3.632l-10.44-6.185a1.56 1.56 0 10-1.59 2.683l7.688 4.555h.002a2.11 2.11 0 11-2.154 3.633l-4.126-2.445h-.002v-.001l-3.012-1.785a1.559 1.559 0 10-1.59 2.683l3.012 1.785h.001a2.11 2.11 0 01.74 2.892 2.114 2.114 0 01-2.892.741l-3.513-2.082a5.234 5.234 0 00-1.34-7.088 5.197 5.197 0 00-2.172-.905 5.237 5.237 0 00-1.847-6.08 5.209 5.209 0 00-3.858-.915 5.191 5.191 0 00-2.103-3.365 5.237 5.237 0 00-6.766.57 5.196 5.196 0 00-1.49-1.654 5.237 5.237 0 00-5.78-.211l-.714-.422 9.807-16.554.467.275a7.895 7.895 0 006.91.575l2.997-1.16c1.716-.662 2.661-.705 4.358.095a6.98 6.98 0 00-1.769 4.65v6.913a3.336 3.336 0 003.328 3.333h.004a6.85 6.85 0 004.874-2.018 6.869 6.869 0 001.655-2.65L79.735 86.08c.485.287.83.746.969 1.292.14.546.058 1.113-.23 1.599zm11.31-10.628l-3.213 1.904a2.981 2.981 0 01-4.08-1.044l-4.913-8.295a1.56 1.56 0 00-2.684 1.59l4.915 8.294c.092.156.192.305.297.45l-1.367.798a7.884 7.884 0 00-.796.539L58.76 70.032c-1.038-.614-2.353.135-2.353 1.342-.017.093.16 1.696-1.107 2.963a3.751 3.751 0 01-2.669 1.105h-.002a.213.213 0 01-.212-.214v-6.914a3.88 3.88 0 012.923-3.756l5.18-1.31c1.879-.475 2.941.528 5.755 1.48a7.882 7.882 0 005.962-.096l.941 1.59a1.56 1.56 0 102.684-1.59l-1.854-3.129a2.976 2.976 0 011.044-4.08l3.214-1.903a.3.3 0 01.413.106L91.89 77.928a.3.3 0 01-.105.413z" fill="#00485A"/></svg>