<svg width="113" height="113" fill="none" xmlns="http://www.w3.org/2000/svg"><path d="M41.715 25.874l8.977-4.752h11.089l10.032 4.752 5.28 10.56v14.258L56.5 41.187l-21.65 8.977v-13.73l6.865-10.56z" fill="#FFCC34"/><path d="M27.83 83.764a6 6 0 014.887-3.986l13.736-1.807a6 6 0 014.688 1.393l1.295 1.11a6 6 0 007.987-.159l1.297-1.203a6 6 0 015.096-1.517l12.38 2.122a6 6 0 014.477 3.497l4.51 10.249c.727 1.455-.331 3.168-1.958 3.168H51.454a6 6 0 01-4.07-1.591l-1.35-1.247a6 6 0 00-7.818-.276l-1.537 1.229a6 6 0 01-5.275 1.117l-.853-.225a6 6 0 01-4.143-7.765l1.422-4.109z" fill="#00728F"/><path d="M91.704 98.42l-4.219-12.66a12.758 12.758 0 00-9.822-8.517l-12.18-2.217v-.944a18.34 18.34 0 005.433-4.824h3.68a5.474 5.474 0 005.468-5.468V41.92c0-13.065-10.63-23.694-23.694-23.694-13.064 0-23.694 10.629-23.694 23.693v12.758c0 3.514 2.5 6.454 5.813 7.14 1.022 5.238 4.295 9.67 8.768 12.265v.944l-12.182 2.217a12.756 12.756 0 00-9.82 8.517l-.73 2.188-6.207-6.207a1.826 1.826 0 010-2.58l7.2-7.197-13.513-13.512-8.136 8.136A12.675 12.675 0 00.132 75.61a12.67 12.67 0 003.737 9.02L28.5 109.262A12.678 12.678 0 0037.523 113c3.408 0 6.61-1.329 8.963-3.684l8.878-8.134-2.769-2.763h39.11zM76.418 63.79a1.824 1.824 0 01-1.822 1.823h-1.533c.528-1.205.93-2.475 1.188-3.797.78-.162 1.498-.472 2.167-.862v2.836zm-1.822-5.974v-6.277c1.084.632 1.822 1.795 1.822 3.138s-.738 2.506-1.822 3.139zm-36.452 0c-1.084-.633-1.822-1.796-1.822-3.139 0-1.343.738-2.506 1.822-3.138v6.277zm0-12.252v2.082a7.233 7.233 0 00-1.822.754v-6.48c0-11.055 8.994-20.05 20.048-20.05 11.054 0 20.048 8.995 20.048 20.05v6.48a7.166 7.166 0 00-1.822-.754v-2.082h-1.823c-5.39 0-10.456-2.1-14.269-5.91l-2.134-2.135-2.134 2.135a20.053 20.053 0 01-14.27 5.91h-1.822zm3.645 12.758V49.14a23.63 23.63 0 0014.58-6.477 23.62 23.62 0 0014.582 6.477v9.182c0 2.658-.726 5.144-1.972 7.29h-12.61v3.646h9.613c-2.57 2.262-5.929 3.645-9.612 3.645-8.04 0-14.58-6.541-14.58-14.58zm20.049 17.386v.086l-5.468 5.468-5.468-5.468v-.086a18.2 18.2 0 0010.936 0zM28.71 86.912a9.116 9.116 0 017.016-6.086l12.74-2.315 7.904 7.905 7.903-7.903 12.738 2.315a9.113 9.113 0 017.015 6.085l2.623 7.861H48.95l-7.099-7.099-7.888 7.136c-.687.69-1.888.69-2.577 0l-3.98-3.981 1.304-3.918zM12.003 63.606l8.358 8.358-1.98 1.98-8.357-8.359 1.979-1.979zm31.959 43.082a9.067 9.067 0 01-6.443 2.667 9.065 9.065 0 01-6.445-2.67L6.442 82.055a9.054 9.054 0 01-2.668-6.444c0-2.434.948-4.724 2.668-6.444l1.003-1.003 8.358 8.359-.066.065a5.477 5.477 0 000 7.734l13.07 13.07a5.44 5.44 0 003.868 1.601c1.461 0 2.834-.568 3.8-1.538l.136-.122 8.397 8.397-1.046.958zm3.736-3.426l-8.378-8.379 2.407-2.176 8.364 8.364-2.393 2.191zM107.402 0H81.886a5.474 5.474 0 00-5.468 5.468v14.58a5.474 5.474 0 005.468 5.468h4.868L84.87 36.508l17.588-10.992h4.945a5.474 5.474 0 005.468-5.468V5.468A5.474 5.474 0 00107.402 0zm1.823 20.048a1.826 1.826 0 01-1.823 1.823h-5.991l-11.575 7.234 1.241-7.234h-9.191a1.826 1.826 0 01-1.823-1.823V5.468c0-1.005.819-1.823 1.823-1.823h25.516c1.004 0 1.823.818 1.823 1.823v14.58z" fill="#00485A"/><path d="M105.579 7.29h-21.87v3.645h21.87V7.29zm-7.289 7.29H83.707v3.646H98.29V14.58zm7.289 0h-3.645v3.646h3.645V14.58zM63.194 56.687a1.942 1.942 0 100-3.883 1.942 1.942 0 000 3.883zm-13.729 0a1.942 1.942 0 100-3.883 1.942 1.942 0 000 3.883z" fill="#00485A"/></svg>