<svg width="112" height="107" fill="none" xmlns="http://www.w3.org/2000/svg"><path d="M51.64 74.589a2.247 2.247 0 00-1.546-.613c-.576 0-1.14.222-1.547.613a2.055 2.055 0 00-.64 1.477c0 .55.233 1.089.64 1.478a2.257 2.257 0 003.093 0 2.06 2.06 0 00.641-1.478c0-.55-.234-1.089-.64-1.477z" fill="#00485A"/><path d="M17.5 52l9-3.5L35 56l7-7.5 9.5 3L56 57v12H14v-9l3.5-8z" fill="#00728F"/><rect x="26" y="26" width="18" height="10" rx="2" fill="#FFCC34"/><path d="M71.041 2h28.918C105.496 2 110 6.252 110 11.478v20.283c0 5.226-4.504 9.478-10.041 9.478H79.905l-6.574 6.206a2.07 2.07 0 01-1.42.555c-.259 0-.52-.047-.768-.144-.75-.294-1.24-.985-1.24-1.752V41.18C64.9 40.644 61 36.624 61 31.76V11.478C61 6.252 65.504 2 71.041 2z" fill="#FFCC34"/><path d="M98 56.01c-1.208 0-2.188.935-2.188 2.09v9.19H58.188v-5.158c0-7.947-6.255-14.52-14.308-15.473 1.592-1.876 2.548-4.264 2.548-6.861V25.096c0-1.154-.98-2.09-2.188-2.09H32.795c-5.085 0-9.222 3.952-9.222 8.81v7.982c0 2.597.956 4.984 2.547 6.861-8.053.953-14.308 7.526-14.308 15.473v5.159H4.375V17.083c0-.894.766-1.62 1.707-1.62h45.47c1.208 0 2.188-.936 2.188-2.09s-.98-2.09-2.188-2.09H6.082C2.73 11.283 0 13.885 0 17.083v61.962c0 3.199 2.729 5.8 6.082 5.8h33.289V94.5c-5.519.534-9.84 4.999-9.84 10.409 0 1.154.98 2.09 2.188 2.09h36.75c1.208 0 2.187-.936 2.187-2.09 0-5.41-4.32-9.875-9.839-10.409v-9.654h33.288c3.354 0 6.083-2.601 6.083-5.8V58.1c-.001-1.154-.98-2.09-2.188-2.09zM27.948 31.817c0-2.554 2.174-4.631 4.847-4.631h9.258v3.337c0 1.657-1.412 3.006-3.147 3.006H27.948v-1.712zm0 5.892h10.958a7.767 7.767 0 003.147-.662v2.751c0 3.715-3.164 6.738-7.053 6.738s-7.052-3.023-7.052-6.738v-2.09zm9.605 13.006L35 53.155l-2.553-2.44h5.106zM16.188 62.133c0-5.727 4.438-10.482 10.201-11.293l7.064 6.748c.427.408.987.612 1.547.612.56 0 1.12-.203 1.547-.612l7.063-6.748c5.764.81 10.203 5.566 10.203 11.293v5.159H16.187v-5.159zm49.719 40.686H34.28c.904-2.44 3.342-4.193 6.202-4.193h19.223c2.86 0 5.299 1.753 6.202 4.193zm-22.161-8.373v-9.6h12.696v9.6H43.746zm52.066-15.4c0 .894-.765 1.62-1.707 1.62H6.082c-.941 0-1.707-.726-1.707-1.62V71.47h91.438v7.575zm3.734-30.296a2.256 2.256 0 00-3.093 0c-.406.39-.64.928-.64 1.477 0 .552.233 1.09.64 1.478.407.39.972.612 1.547.612s1.14-.221 1.546-.612c.407-.389.642-.926.642-1.478 0-.55-.235-1.088-.642-1.477zM98 9.825H81.594c-1.208 0-2.188.935-2.188 2.09 0 1.154.98 2.09 2.188 2.09H98c1.208 0 2.188-.936 2.188-2.09 0-1.155-.98-2.09-2.188-2.09zm-23.829.612a2.256 2.256 0 00-3.093 0 2.06 2.06 0 00-.64 1.477c0 .55.233 1.09.64 1.478a2.258 2.258 0 003.093 0 2.06 2.06 0 00.641-1.478 2.06 2.06 0 00-.64-1.477zM98 19.02H72.625c-1.208 0-2.188.935-2.188 2.09 0 1.154.98 2.09 2.188 2.09H98c1.208 0 2.188-.936 2.188-2.09 0-1.155-.98-2.09-2.188-2.09z" fill="#00485A"/><path d="M98 28.215H72.625c-1.208 0-2.188.936-2.188 2.09s.98 2.09 2.188 2.09H98c1.208 0 2.188-.936 2.188-2.09s-.98-2.09-2.188-2.09z" fill="#00485A"/><path d="M101.062.002h-31.5c-6.03 0-10.937 4.688-10.937 10.45v22.36c0 5.362 4.248 9.794 9.698 10.383v5.43c0 .846.533 1.608 1.35 1.932a2.272 2.272 0 002.384-.453l7.161-6.842h21.844c6.031 0 10.938-4.688 10.938-10.45v-22.36c0-5.762-4.907-10.45-10.938-10.45zm6.563 32.81c0 3.458-2.944 6.27-6.563 6.27h-22.75c-.58 0-1.136.22-1.546.612l-4.068 3.887v-2.409c0-1.154-.98-2.09-2.188-2.09h-.948c-3.618 0-6.562-2.812-6.562-6.27v-22.36c0-3.458 2.944-6.27 6.563-6.27h31.499c3.619 0 6.563 2.812 6.563 6.27v22.36z" fill="#00485A"/></svg>