<svg width="108" height="108" fill="none" xmlns="http://www.w3.org/2000/svg"><path d="M106 103.129a1.873 1.873 0 01-1.875 1.871h-41.25A1.873 1.873 0 0161 103.129V48.871c0-1.033.84-1.87 1.875-1.87h41.25c1.036 0 1.875.837 1.875 1.87v54.258z" fill="#00728F"/><path fill="#FFCC34" d="M15 30h45v7H15z"/><path d="M71.334 67h23.333C96.507 67 98 65.657 98 64v-6c0-1.657-1.492-3-3.333-3H71.333C69.493 55 68 56.343 68 58v6c0 1.657 1.493 3 3.334 3z" fill="#EFEFEE"/><path d="M48.6 62.1a1.8 1.8 0 003.6 0c0-5.954-5.508-10.876-12.6-11.6v-1.9a1.8 1.8 0 00-3.6 0v1.9c-7.091.72-12.6 5.646-12.6 11.6S28.91 72.976 36 73.7v16.178c-5.099-.645-9-3.973-9-7.978a1.8 1.8 0 00-3.6 0c0 5.954 5.509 10.876 12.6 11.6v1.9a1.8 1.8 0 003.6 0v-1.9c7.093-.72 12.6-5.646 12.6-11.6s-5.508-10.876-12.6-11.6V54.123c5.1.645 9 3.973 9 7.978zm-21.6 0c0-4.005 3.901-7.333 9-7.978v15.956c-5.099-.645-9-3.973-9-7.978zm21.6 19.8c0 4.005-3.9 7.333-9 7.978V73.922c5.1.645 9 3.973 9 7.978z" fill="#00485A"/><path d="M6.48 54.312a1.8 1.8 0 00-2.39.874A43.92 43.92 0 000 73.8C0 96.493 12.717 108 37.8 108a58.206 58.206 0 0015.043-1.733 1.801 1.801 0 00-.925-3.48A55.445 55.445 0 0137.8 104.4c-23.013 0-34.2-10.01-34.2-30.6a39.805 39.805 0 013.757-17.1 1.8 1.8 0 00-.877-2.389zM102.6 45H63a5.4 5.4 0 00-5.4 5.4v52.2A5.4 5.4 0 0063 108h39.6a5.4 5.4 0 005.4-5.4V50.4a5.4 5.4 0 00-5.4-5.4zm1.8 57.6a1.8 1.8 0 01-1.8 1.8H63a1.8 1.8 0 01-1.8-1.8V50.4a1.8 1.8 0 011.8-1.8h39.6a1.8 1.8 0 011.8 1.8v52.2z" fill="#00485A"/><path d="M70.2 68.4h25.2a3.6 3.6 0 003.6-3.6v-7.2a3.6 3.6 0 00-3.6-3.6H70.2a3.6 3.6 0 00-3.6 3.6v7.2a3.6 3.6 0 003.6 3.6zm0-10.8h25.2v7.2H70.2v-7.2zm3.6 16.2h-5.4a1.8 1.8 0 000 3.6h5.4a1.8 1.8 0 000-3.6zm0 7.2h-5.4a1.8 1.8 0 000 3.6h5.4a1.8 1.8 0 000-3.6zm0 7.2h-5.4a1.8 1.8 0 000 3.6h5.4a1.8 1.8 0 000-3.6zm0 7.2h-5.4a1.8 1.8 0 100 3.6h5.4a1.8 1.8 0 100-3.6zm12.6-21.6H81a1.8 1.8 0 100 3.6h5.4a1.8 1.8 0 000-3.6zm0 7.2H81a1.8 1.8 0 100 3.6h5.4a1.8 1.8 0 000-3.6zm0 7.2H81a1.8 1.8 0 100 3.6h5.4a1.8 1.8 0 000-3.6zm0 7.2H81a1.8 1.8 0 100 3.6h5.4a1.8 1.8 0 100-3.6zM99 73.8h-5.4a1.8 1.8 0 000 3.6H99a1.8 1.8 0 100-3.6zm0 7.2h-5.4a1.8 1.8 0 000 3.6H99a1.8 1.8 0 100-3.6zm0 7.2h-5.4a1.8 1.8 0 000 3.6H99a1.8 1.8 0 100-3.6zm0 7.2h-5.4a1.8 1.8 0 100 3.6H99a1.8 1.8 0 100-3.6zM11.385 2.273C6.645 6.615 14.972 20.007 19.879 27H18.9a6.268 6.268 0 00-4.459 1.84A6.345 6.345 0 0012.6 33.3a6.28 6.28 0 003.157 5.427 84.771 84.771 0 00-5.929 6.993 1.8 1.8 0 002.88 2.16 86.979 86.979 0 017.2-8.28H56.7a6.3 6.3 0 000-12.6h-.98c4.906-6.993 13.233-20.383 8.497-24.727-2.178-1.994-4.716-.54-6.954.733A13.884 13.884 0 0150.4 5.4a6.973 6.973 0 01-5.132-2.268 10.478 10.478 0 00-14.94 0 6.973 6.973 0 01-5.14 2.268 13.826 13.826 0 01-6.859-2.394c-2.235-1.276-4.771-2.725-6.944-.733zm47.228 29.115A2.7 2.7 0 0156.7 36H18.9a2.7 2.7 0 110-5.4h37.8a2.72 2.72 0 011.913.788zM25.187 9c2.81 0 5.503-1.13 7.472-3.134a6.937 6.937 0 0110.26 0A10.485 10.485 0 0050.4 9a17.246 17.246 0 008.656-2.87 7.528 7.528 0 012.734-1.203C63.637 6.619 58.756 16.823 51.293 27H46.8v-9a1.8 1.8 0 00-3.6 0v9H32.4v-9a1.8 1.8 0 00-3.6 0v9h-4.486C16.852 16.823 11.97 6.619 13.842 4.9a8.936 8.936 0 012.7 1.23A17.21 17.21 0 0025.187 9z" fill="#00485A"/></svg>