<svg width="248" height="84" fill="none" xmlns="http://www.w3.org/2000/svg"><g clip-path="url(#clip0_1:700)" fill="#fff"><path fill-rule="evenodd" clip-rule="evenodd" d="M43.883 45.622C19.043 26.614.316 42.172 0 64.83c17.125-16.909 33.12-8.636 43.883-19.21zm1.534 3.692C42.303 83.475 18.365 55.751.947 67.716c9.702-12.51 28.203-8.474 44.47-18.402zm3.948 3.39c-3.97 8.172-1.602 15.214 7.942 19.795 6.182 2.966 12.657 6.275 18.749 10.694-10.379-9.12-12.95-24.738-26.69-30.489zm3.903-1.432c21.547-1.796 36.505 14.568 28 32.728-12.342-8.96-12.545-24.94-28-32.728zm-7.783-9.322c.812-8.273-2.572-14.993-7.897-21.046C33.798 16.586 32.579 9.645 33.955 0c-13.717 16.566-8.009 32.264 11.53 41.95zM35.355 1.675c4.376 9.04 10.265 16.566 17.327 22.861 3.993 3.531 1.918 9.16-2.572 16.304.316-14.468-17.982-23.265-14.756-39.165z"/><path d="M85.983 45.501v-1.13c-1.624-.181-2.617-.747-3.564-2.583-.993-1.997-1.76-3.914-2.302-4.943-1.15-2.26-2.572-3.128-4.49-3.572v-.1c.542-.303 2.144-1.312 3.34-3.713 1.579-3.168 2.233-3.753 3.61-3.753h.699c.654 0 1.466-.404 1.466-1.17 0-.929-.812-1.615-2.143-1.615-1.737.04-2.843 1.03-3.926 3.41-1.218 2.744-1.918 4.056-2.955 5.085-1.151 1.07-2.414 1.453-4.062 1.453v-4.823c0-3.026.271-3.268 2.798-3.47v-1.13H63.963v1.13c2.572.201 2.843.444 2.843 3.47V40.86c0 3.067-.271 3.29-2.843 3.511v1.13h10.491v-1.13c-2.527-.202-2.797-.444-2.797-3.531V34.1c1.872-.04 2.775.828 3.722 3.471.722 1.998 1.376 3.854 1.85 4.803.97 2.098 2.008 3.127 4.648 3.127h4.106zm1.986-22.054v1.13c2.391.242 2.64.524 2.64 3.329v13.257c0 2.825-.271 3.087-2.843 3.33v.988h10.92v-.989c-3.001-.242-3.227-.524-3.227-3.33V36.32l2.234.545c.429 0 .812 0 1.354-.06 4.038-.444 7.535-2.583 7.535-7.043 0-2.3-1.038-4.015-2.775-5.044-1.489-.888-3.384-1.271-6.34-1.271H87.97zm7.49 2.643c0-.545.068-.928.384-1.09.225-.181.587-.302 1.218-.302 2.008 0 4.219 1.21 4.219 5.226 0 4.64-2.91 5.428-4.038 5.428a5.682 5.682 0 01-1.805-.303V26.09h.022zm37.814 19.411v-1.13c-2.64-.202-2.91-.525-2.91-3.531V27.967c0-2.886.315-3.168 2.955-3.37v-1.13h-8.212v.404c0 .302-.068.645-.339 1.09l-8.145 16.908h-.067c.203-3.854.203-5.811.203-7.284v-6.417c0-3.067.316-3.37 2.843-3.571v-1.13h-10.65v1.13c2.685.202 3.001.545 3.001 3.612v12.57c0 3.088-.271 3.41-2.956 3.612v1.13h8.258v-.403c0-.404 0-.828.271-1.372l8.1-16.97h.112c-.158 3.632-.158 5.367-.158 6.457v7.627c0 3.027-.27 3.33-2.797 3.531v1.13h10.491v-.02zm21.817-5.872c-1.647 3.067-3.564 4.904-6.294 4.904-4.152 0-7.265-4.258-7.265-10.412 0-5.125 2.73-9.766 7.062-9.766 2.526 0 4.715 1.17 5.911 4.883l1.308-.242a145.51 145.51 0 00-.654-5.287c-1.038-.202-3.384-.726-5.798-.726-8.19 0-13.402 4.842-13.402 11.824 0 5.367 3.452 11.138 12.454 11.138 2.392 0 5.234-.585 6.182-.827.587-1.17 1.354-3.572 1.805-5.085l-1.309-.404zm22.63-10.795c-.158-2.098-.339-4.843-.384-6.255h-.925c-.586.646-1.083.868-1.963.868h-13.289c-1.037 0-1.466-.182-2.03-.868h-.925c-.045 1.715-.271 4.096-.429 6.356h1.309c.428-1.513.812-2.643 1.353-3.228.587-.646 1.377-.888 3.498-.888h1.376v16.243c0 2.825-.316 3.087-3.181 3.289v1.13h11.371v-1.13c-3.001-.202-3.294-.484-3.294-3.29V24.82h1.737c1.534 0 2.504.181 3.114.746.586.586.97 1.615 1.421 3.33l1.241-.06zm24.547 16.667v-1.13c-2.121-.202-2.572-.585-3.768-3.632-2.346-5.912-4.422-11.784-6.678-17.736l-1.805.383-7.22 17.797c-1.038 2.603-1.624 2.986-3.813 3.188v1.13h7.942v-1.13c-2.572-.303-2.73-.726-2.143-2.542a79.725 79.725 0 011.15-3.33h6.566c.451 1.13.925 2.502 1.263 3.532.61 1.674.429 2.098-1.624 2.34v1.13h10.13zm-10.378-8.757h-5.37c.925-2.482 1.692-4.903 2.685-7.446h.113l2.572 7.446zm32.85 8.757v-1.13c-2.572-.202-2.843-.525-2.843-3.571V27.503c0-2.482.271-2.724 2.843-2.926v-1.13h-18.975v1.13c2.685.181 3.294.544 3.294 1.997 0 6.013-.834 10.916-2.256 14.084-.812 1.796-1.737 3.188-3.452 4.359v.726c.451.182 1.309.303 2.234.303.88 0 1.624-.525 2.346-1.695 2.189-3.37 3.159-10.371 3.159-18.281 0-1.03.158-1.271 1.354-1.271h3.384c1.151 0 1.196.14 1.196 1.715v14.265c0 3.067-.271 3.37-2.843 3.572v1.13h10.559v.02zm23.261 0v-1.13c-2.572-.202-2.843-.525-2.843-3.571V27.503c0-2.482.271-2.724 2.843-2.926v-1.13h-18.974v1.13c2.684.181 3.294.544 3.294 1.997 0 6.013-.835 10.916-2.257 14.084-.812 1.796-1.737 3.188-3.452 4.359v.726c.452.182 1.309.303 2.234.303.88 0 1.625-.525 2.346-1.695 2.189-3.37 3.159-10.371 3.159-18.281 0-1.03.158-1.271 1.354-1.271h3.384c1.151 0 1.196.14 1.196 1.715v14.265c0 3.067-.271 3.37-2.843 3.572v1.13H248v.02zM73.777 9.585c-.09-.848-.158-2.26-.18-2.603h-8.258v.545c1.309.1 1.444.242 1.444 1.856v6.477c0 1.433-.135 1.574-1.444 1.675v.565h5.573v-.565c-1.534-.101-1.647-.242-1.647-1.675V8.253c0-.585 0-.585.677-.585h.947c.948 0 1.309.141 1.602.565.249.343.384.787.632 1.412l.654-.06zm1.151-2.603v.565c1.196.12 1.331.262 1.331 1.674v6.7c0 1.412-.135 1.553-1.444 1.674v.505h5.505v-.485c-1.511-.12-1.624-.262-1.624-1.674v-2.462l1.128.283c.203 0 .406 0 .677-.04 2.03-.223 3.79-1.292 3.79-3.552 0-1.17-.519-2.038-1.399-2.543-.722-.464-1.67-.645-3.158-.645h-4.806zm3.79 1.331c0-.282.045-.464.203-.544.113-.081.294-.162.632-.162 1.016 0 2.144.606 2.144 2.644 0 2.34-1.467 2.744-2.031 2.744a2.36 2.36 0 01-.903-.162v-4.52h-.045zm17.576-1.331h-3.926v.565l.7.14c.564.122.609.324.338 1.05-.564 1.655-1.173 3.027-1.805 4.58l-2.233-4.842c-.226-.484-.203-.686.18-.787l.61-.141v-.565H84.99v.565c1.173.161 1.353.363 1.692 1.029.473.867 2.594 5.206 3.046 6.114.293.605.428.988.428 1.291 0 .646-.519 1.19-.97 1.19-.27 0-.61-.14-.88-.302-.428-.222-.767-.242-1.06-.06a.827.827 0 00-.451.726c-.023.605.699 1.009 1.398 1.009.993 0 2.03-.444 3.136-2.805.632-1.292 2.28-5.125 2.933-6.538.565-1.21.768-1.453 2.031-1.654v-.565zm12.567 11.138v-.585c-1.309-.101-1.466-.242-1.466-1.837V9.363c0-1.574.157-1.715 1.489-1.816v-.565H96.881v.565c1.398.1 1.534.242 1.534 1.796v6.355c0 1.595-.136 1.736-1.467 1.837v.565h5.28v-.565c-1.173-.101-1.309-.242-1.309-1.837V8.313c0-.605.045-.645.7-.645h2.639c.655 0 .677.02.677.686v7.345c0 1.594-.135 1.735-1.353 1.836v.565h5.279v.02zm13.221 0v-.585c-1.308-.101-1.466-.242-1.466-1.837V9.363c0-1.574.158-1.715 1.489-1.816v-.565h-12.003v.565c1.399.1 1.534.242 1.534 1.796v6.355c0 1.595-.135 1.736-1.466 1.837v.565h5.279v-.565c-1.173-.101-1.308-.242-1.308-1.837V8.313c0-.605.045-.645.699-.645h2.64c.654 0 .677.02.677.686v7.345c0 1.594-.136 1.735-1.354 1.836v.565h5.279v.02zm12.635 0v-.585c-1.06-.101-1.309-.303-1.895-1.837-1.173-2.986-2.234-5.952-3.385-8.938l-.902.181-3.655 8.98c-.519 1.311-.812 1.513-1.918 1.614v.565h4.016v-.565c-1.308-.162-1.376-.363-1.083-1.292.203-.686.429-1.25.587-1.674h3.316c.226.564.474 1.27.632 1.795.316.848.203 1.05-.812 1.17v.566h5.099v.02zm-5.234-4.44h-2.708c.474-1.25.857-2.481 1.354-3.752h.068l1.286 3.753z"/></g><defs><clipPath id="clip0_1:700"><path fill="#fff" d="M0 0h248v84H0z"/></clipPath></defs></svg>