<svg width="172" height="66" fill="none" xmlns="http://www.w3.org/2000/svg"><g clip-path="url(#clip0)" fill="#00728F"><path fill-rule="evenodd" clip-rule="evenodd" d="M30.435 35.846C13.207 20.91.219 33.135 0 50.939c11.877-13.286 22.97-6.786 30.435-15.093zm1.064 2.901c-2.16 26.84-18.762 5.058-30.842 14.459 6.729-9.83 19.56-6.659 30.842-14.459zm2.738 2.663c-2.754 6.422-1.11 11.955 5.508 15.553 4.288 2.33 8.779 4.93 13.004 8.403C45.55 58.2 43.767 45.929 34.236 41.41zm2.707-1.125C51.888 38.874 62.262 51.732 56.364 66c-8.56-7.04-8.701-19.595-19.42-25.715zm-5.398-7.325c.563-6.5-1.784-11.78-5.477-16.535C23.44 13.032 22.595 7.578 23.55 0c-9.513 13.016-5.554 25.35 7.997 32.96zM24.52 1.316c3.036 7.102 7.12 13.016 12.018 17.962 2.77 2.775 1.33 7.198-1.784 12.81.219-11.367-12.472-18.28-10.234-30.772z"/><path d="M59.634 35.75v-.888c-1.127-.142-1.816-.586-2.473-2.029-.688-1.57-1.22-3.075-1.596-3.884-.798-1.776-1.784-2.457-3.114-2.806v-.08c.376-.237 1.487-1.03 2.316-2.917 1.095-2.489 1.55-2.948 2.504-2.948h.485c.454 0 1.017-.317 1.017-.92 0-.73-.563-1.268-1.487-1.268-1.204.031-1.971.808-2.722 2.68-.845 2.155-1.33 3.186-2.05 3.994-.798.84-1.674 1.142-2.817 1.142v-3.79c0-2.377.188-2.568 1.94-2.726v-.888h-7.276v.888c1.784.158 1.972.349 1.972 2.727v10.067c0 2.41-.188 2.584-1.971 2.758v.888h7.276v-.888c-1.753-.158-1.94-.348-1.94-2.774v-5.295c1.298-.032 1.924.65 2.581 2.727.5 1.57.955 3.028 1.283 3.773.673 1.649 1.393 2.457 3.224 2.457h2.848zm1.377-17.328v.888c1.658.19 1.83.412 1.83 2.616v10.416c0 2.22-.187 2.425-1.971 2.616v.776h7.573v-.776c-2.08-.19-2.237-.413-2.237-2.616v-3.805l1.549.428c.297 0 .563 0 .939-.048 2.8-.349 5.226-2.029 5.226-5.533 0-1.807-.72-3.155-1.925-3.963-1.032-.698-2.347-.999-4.397-.999h-6.587zm5.195 2.077c0-.428.047-.73.266-.856.156-.143.407-.238.845-.238 1.392 0 2.926.951 2.926 4.106 0 3.646-2.019 4.265-2.801 4.265-.5 0-.908-.111-1.252-.238v-7.04h.016zM92.43 35.75v-.888c-1.83-.158-2.018-.412-2.018-2.774V21.973c0-2.267.219-2.489 2.05-2.647v-.888h-5.696v.317c0 .238-.047.507-.235.856l-5.649 13.286h-.047c.141-3.028.141-4.566.141-5.724v-5.041c0-2.41.22-2.648 1.972-2.806v-.888h-7.386v.888c1.862.158 2.081.428 2.081 2.837v9.878c0 2.425-.188 2.679-2.05 2.837v.888h5.727v-.317c0-.317 0-.65.188-1.078l5.618-13.333h.078c-.11 2.854-.11 4.217-.11 5.073v5.993c0 2.378-.187 2.616-1.94 2.774v.888h7.276v-.016zm15.132-4.613c-1.143 2.41-2.473 3.852-4.366 3.852-2.879 0-5.039-3.345-5.039-8.18 0-4.027 1.894-7.674 4.898-7.674 1.753 0 3.271.92 4.1 3.837l.907-.19a129.3 129.3 0 00-.453-4.154c-.72-.159-2.348-.57-4.022-.57-5.68 0-9.295 3.804-9.295 9.29 0 4.217 2.394 8.751 8.638 8.751 1.659 0 3.63-.46 4.287-.65.407-.92.939-2.806 1.252-3.995l-.907-.317zm15.694-8.482c-.109-1.649-.234-3.805-.266-4.915h-.641c-.407.508-.751.682-1.362.682h-9.216c-.72 0-1.017-.143-1.408-.682h-.642c-.031 1.348-.188 3.219-.297 4.994h.907c.298-1.189.564-2.077.939-2.536.407-.508.955-.698 2.426-.698h.954v12.763c0 2.219-.219 2.425-2.206 2.584v.887h7.886v-.887c-2.081-.159-2.284-.38-2.284-2.584V19.5h1.205c1.064 0 1.736.143 2.159.587.407.46.673 1.268.986 2.616l.86-.048zm17.025 13.095v-.888c-1.471-.158-1.784-.46-2.613-2.853-1.627-4.645-3.067-9.259-4.632-13.936l-1.252.301-5.007 13.984c-.72 2.045-1.127 2.346-2.644 2.505v.887h5.508v-.888c-1.784-.237-1.894-.57-1.487-1.997a67.7 67.7 0 01.798-2.616h4.554c.313.888.641 1.966.876 2.774.422 1.316.297 1.65-1.127 1.84v.887h7.026zm-7.198-6.88h-3.724c.642-1.95 1.174-3.853 1.862-5.85h.078l1.784 5.85zm22.783 6.88v-.888c-1.784-.158-1.971-.412-1.971-2.806V21.61c0-1.95.187-2.14 1.971-2.3v-.887h-13.159v.888c1.862.143 2.284.428 2.284 1.57 0 4.724-.579 8.576-1.565 11.065-.563 1.411-1.205 2.505-2.394 3.425v.57c.313.143.908.238 1.549.238.611 0 1.127-.412 1.628-1.331 1.518-2.648 2.19-8.15 2.19-14.364 0-.809.11-.999.939-.999h2.347c.798 0 .83.111.83 1.348V32.04c0 2.41-.188 2.647-1.972 2.806v.887h7.323v.016zm16.133 0v-.888c-1.784-.158-1.972-.412-1.972-2.806V21.61c0-1.95.188-2.14 1.972-2.3v-.887h-13.16v.888c1.862.143 2.285.428 2.285 1.57 0 4.724-.579 8.576-1.565 11.065-.563 1.411-1.205 2.505-2.394 3.425v.57c.313.143.908.238 1.549.238.61 0 1.127-.412 1.628-1.331 1.517-2.648 2.19-8.15 2.19-14.364 0-.809.11-.999.939-.999h2.347c.798 0 .83.111.83 1.348V32.04c0 2.41-.188 2.647-1.972 2.806v.887H172v.016zM51.168 7.53c-.063-.665-.11-1.775-.125-2.045h-5.727v.428c.907.08 1.001.19 1.001 1.459v5.09c0 1.125-.094 1.236-1.001 1.315v.444h3.865v-.444c-1.064-.08-1.142-.19-1.142-1.316V6.484c0-.46 0-.46.469-.46h.657c.657 0 .908.111 1.111.444.172.27.266.619.438 1.11l.454-.047zm.798-2.045v.444c.83.095.923.206.923 1.316v5.264c0 1.11-.094 1.22-1.001 1.316v.396h3.818v-.38c-1.049-.096-1.127-.207-1.127-1.316V10.59l.783.222c.14 0 .281 0 .47-.031 1.407-.175 2.628-1.015 2.628-2.79 0-.92-.36-1.602-.97-1.998-.501-.365-1.158-.508-2.19-.508h-3.334zm2.629 1.047c0-.222.031-.365.14-.428.079-.064.204-.127.439-.127.704 0 1.486.476 1.486 2.077 0 1.839-1.017 2.156-1.408 2.156a1.47 1.47 0 01-.626-.127V6.532h-.031zm12.19-1.047h-2.723v.444l.485.111c.391.095.422.254.235.825-.392 1.3-.814 2.378-1.252 3.599l-1.55-3.805c-.156-.38-.14-.54.126-.619l.422-.11v-.445h-3.583v.444c.814.127.939.286 1.174.809.328.682 1.8 4.09 2.112 4.804.203.475.297.777.297 1.014 0 .508-.36.936-.672.936-.188 0-.423-.111-.61-.238-.298-.175-.533-.19-.736-.048a.662.662 0 00-.313.571c-.016.476.485.793.97.793.688 0 1.408-.349 2.175-2.204.438-1.015 1.58-4.027 2.034-5.137.391-.95.532-1.141 1.408-1.3v-.444zm8.715 8.752v-.46c-.907-.08-1.017-.19-1.017-1.443V7.356c0-1.236.11-1.347 1.033-1.427v-.444H67.19v.444c.97.08 1.064.19 1.064 1.411v4.994c0 1.253-.093 1.364-1.017 1.443v.444H70.9v-.444c-.814-.08-.908-.19-.908-1.443V6.532c0-.476.032-.508.485-.508h1.831c.454 0 .47.016.47.54v5.77c0 1.253-.094 1.364-.94 1.443v.444H75.5v.016zm9.17 0v-.46c-.908-.08-1.017-.19-1.017-1.443V7.356c0-1.236.11-1.347 1.032-1.427v-.444h-8.324v.444c.97.08 1.064.19 1.064 1.411v4.994c0 1.253-.094 1.364-1.017 1.443v.444h3.661v-.444c-.813-.08-.907-.19-.907-1.443V6.532c0-.476.031-.508.485-.508h1.83c.454 0 .47.016.47.54v5.77c0 1.253-.094 1.364-.939 1.443v.444h3.662v.016zm8.763 0v-.46c-.736-.08-.908-.238-1.315-1.443-.813-2.346-1.549-4.677-2.347-7.023l-.626.143-2.535 7.055c-.36 1.03-.563 1.189-1.33 1.268v.444h2.785v-.444c-.907-.127-.954-.285-.75-1.015.14-.539.297-.983.406-1.316h2.3c.157.444.329 1 .439 1.412.219.665.14.824-.564.919v.444h3.537v.016zm-3.63-3.488h-1.878c.328-.983.594-1.95.939-2.949h.046l.892 2.949z"/></g><defs><clipPath id="clip0"><path fill="#fff" d="M0 0h172v66H0z"/></clipPath></defs></svg>