<svg width="18" height="18" fill="none" xmlns="http://www.w3.org/2000/svg"><path d="M15.153 10.73c-.393-.407-.867-.625-1.37-.625-.498 0-.976.213-1.385.62l-1.28 1.271c-.105-.056-.21-.109-.311-.161-.146-.073-.284-.142-.401-.214-1.2-.758-2.289-1.746-3.334-3.024-.506-.637-.846-1.174-1.093-1.718.332-.302.64-.617.94-.92.113-.112.226-.23.34-.342.85-.847.85-1.944 0-2.79L6.153 1.726a16.84 16.84 0 01-.377-.383c-.243-.25-.498-.508-.761-.75C4.622.206 4.152 0 3.658 0S2.686.206 2.28.593L2.273.6.896 1.984a2.944 2.944 0 00-.88 1.875C-.08 5.036.269 6.133.537 6.85c.655 1.762 1.635 3.395 3.098 5.145a19.048 19.048 0 006.346 4.947c.932.44 2.175.96 3.565 1.049.085.004.174.008.255.008.935 0 1.721-.335 2.337-1 .004-.008.012-.012.016-.02.21-.254.454-.484.709-.73.174-.165.352-.339.526-.52.401-.415.612-.9.612-1.395 0-.5-.215-.98-.624-1.383l-2.223-2.222z" fill="#000"/></svg>