<svg width="23" height="13" fill="none" xmlns="http://www.w3.org/2000/svg"><path d="M19.086 7.455c-.372-.455-.266-.658 0-1.065.005-.004 3.074-4.114 3.39-5.508h.003c.157-.509 0-.882-.76-.882h-2.515c-.64 0-.936.32-1.094.679 0 0-1.28 2.97-3.091 4.894-.585.556-.855.735-1.174.735-.158 0-.402-.178-.402-.686V.882c0-.61-.18-.882-.71-.882H8.78c-.402 0-.64.284-.64.549 0 .577.905.71.999 2.335V6.41c0 .772-.145.915-.466.915-.855 0-2.93-2.982-4.16-6.395C4.267.268 4.024 0 3.379 0H.863C.145 0 0 .322 0 .68c0 .633.855 3.782 3.975 7.942C6.055 11.462 8.984 13 11.648 13c1.601 0 1.797-.342 1.797-.93 0-2.713-.145-2.97.657-2.97.372 0 1.012.18 2.507 1.549C18.32 12.273 18.6 13 19.555 13h2.515c.717 0 1.08-.342.871-1.016-.478-1.418-3.71-4.334-3.855-4.53z" fill="#000"/></svg>