<svg width="21" height="20" fill="none" xmlns="http://www.w3.org/2000/svg"><path d="M20.47 5.77c-.047-1.043-.224-1.76-.476-2.381a4.775 4.775 0 00-1.187-1.74A5.08 5.08 0 0016.99.517c-.653-.242-1.4-.41-2.49-.457C13.401.011 13.052 0 10.265 0 7.48 0 7.13.012 6.035.058c-1.09.045-1.84.214-2.49.456a5.029 5.029 0 00-1.82 1.134A4.816 4.816 0 00.54 3.385C.29 4.01.112 4.723.064 5.765.012 6.815 0 7.15 0 9.813s.012 2.998.06 4.044c.048 1.043.225 1.76.477 2.381a4.82 4.82 0 001.187 1.74 5.08 5.08 0 001.817 1.131c.653.242 1.4.41 2.49.456 1.095.046 1.444.058 4.23.058 2.787 0 3.136-.012 4.231-.058 1.09-.046 1.84-.214 2.49-.456 1.38-.51 2.47-1.552 3.004-2.87.252-.626.429-1.339.477-2.382.048-1.046.06-1.38.06-4.044 0-2.664-.004-2.997-.052-4.044zm-1.848 8.01c-.044.96-.212 1.477-.353 1.822a3.333 3.333 0 01-1.949 1.863c-.36.134-.906.295-1.904.337-1.083.046-1.408.058-4.146.058-2.74 0-3.068-.012-4.147-.058-1.002-.042-1.544-.203-1.905-.337a3.177 3.177 0 01-1.178-.732 3.041 3.041 0 01-.766-1.127c-.14-.345-.31-.867-.353-1.821-.048-1.035-.06-1.346-.06-3.964s.012-2.933.06-3.964c.044-.958.212-1.475.353-1.82.164-.426.425-.813.77-1.128a3.205 3.205 0 011.178-.732c.361-.134.907-.295 1.905-.337 1.083-.046 1.408-.057 4.146-.057 2.743 0 3.068.011 4.147.057 1.002.042 1.544.203 1.905.337.445.157.85.407 1.178.732.341.319.602.702.766 1.128.14.345.309.866.353 1.82.048 1.035.06 1.346.06 3.964s-.012 2.925-.06 3.96z" fill="#000"/><path d="M10.265 4.772c-2.91 0-5.273 2.258-5.273 5.041 0 2.783 2.362 5.041 5.273 5.041 2.912 0 5.273-2.258 5.273-5.04 0-2.784-2.361-5.042-5.273-5.042zm0 8.311c-1.888 0-3.42-1.464-3.42-3.27 0-1.805 1.532-3.27 3.42-3.27 1.89 0 3.42 1.465 3.42 3.27 0 1.806-1.53 3.27-3.42 3.27zm6.713-8.51c0 .65-.551 1.177-1.231 1.177s-1.231-.527-1.231-1.177.551-1.177 1.23-1.177c.68 0 1.232.527 1.232 1.177z" fill="#000"/></svg>