<svg width="13" height="13" fill="none" xmlns="http://www.w3.org/2000/svg"><path d="M12.16 5.65a.918.918 0 00.222-.93.878.878 0 00-.71-.617l-2.967-.446a.389.389 0 01-.292-.218L7.084.669a.868.868 0 00-1.577 0L4.18 3.438a.389.389 0 01-.292.218l-2.967.446a.882.882 0 00-.712.616.92.92 0 00.224.93l2.148 2.157a.406.406 0 01.11.354l-.506 3.046a.907.907 0 00.193.734.874.874 0 001.087.221l2.648-1.436c.11-.06.252-.06.363 0l2.654 1.44c.13.069.267.107.409.107.257 0 .506-.12.675-.326a.913.913 0 00.193-.734l-.506-3.045a.415.415 0 01.11-.354l2.149-2.164z" fill="#fff"/></svg>