<svg width="22" height="21" fill="none" xmlns="http://www.w3.org/2000/svg"><path fill-rule="evenodd" clip-rule="evenodd" d="M18.795 3.052C16.726 1.085 13.976.002 11.046 0 5.008 0 .094 4.668.092 10.405a9.99 9.99 0 001.462 5.203L0 21l5.807-1.447a11.4 11.4 0 005.235 1.267h.004c6.037 0 10.952-4.669 10.954-10.406.001-2.781-1.137-5.395-3.205-7.362zm-7.749 16.01h-.004a9.46 9.46 0 01-4.634-1.206l-.332-.187-3.446.859.92-3.192-.217-.327a8.312 8.312 0 01-1.392-4.603c.002-4.769 4.087-8.648 9.109-8.648 2.431 0 4.717.901 6.436 2.536 1.72 1.635 2.665 3.808 2.665 6.119-.003 4.77-4.087 8.65-9.105 8.65zm4.994-6.478c-.274-.13-1.62-.759-1.87-.846-.25-.086-.434-.13-.616.13-.183.26-.707.847-.867 1.02-.16.174-.319.195-.593.065-.273-.13-1.155-.405-2.2-1.29-.814-.69-1.364-1.541-1.523-1.802-.16-.26-.002-.387.12-.53.296-.35.593-.716.684-.89.091-.173.045-.325-.023-.455s-.616-1.41-.844-1.93c-.222-.508-.448-.44-.616-.447-.16-.008-.342-.01-.524-.01a1.03 1.03 0 00-.73.326c-.251.26-.958.89-.958 2.17 0 1.28.98 2.515 1.118 2.689.136.174 1.93 2.8 4.675 3.926.653.268 1.163.428 1.56.548.656.198 1.253.17 1.724.103.526-.075 1.62-.63 1.848-1.237.228-.607.228-1.127.16-1.236-.069-.108-.251-.173-.525-.304z" fill="#000"/></svg>