<svg width="20" height="15" viewBox="0 0 20 15" fill="none" xmlns="http://www.w3.org/2000/svg">
<path fill-rule="evenodd" clip-rule="evenodd" d="M15.2093 2.75313C16.5482 3.99156 17.3752 5.71587 17.3752 7.60203C17.3752 10.7553 15.0715 13.4227 11.9411 14.2325L12.5121 14.8993H17.2176C18.8616 13.2608 19.8657 11.0602 19.8657 8.65945C19.8657 4.6775 17.1094 1.27654 13.2701 1.62125e-05L9.93289 10.2885L6.59564 1.62125e-05C2.75641 1.27654 0 4.6775 0 8.65945C0 11.0602 1.00418 13.2608 2.64811 14.8993H7.34386L7.92466 14.2325H7.91483C4.78433 13.4227 2.48081 10.7553 2.48081 7.60203C2.48081 5.71587 3.3077 4.00102 4.64649 2.75313C4.77446 2.61021 5.03041 2.53402 5.27655 2.57211C5.52268 2.61979 5.75893 2.78176 5.87704 3.13419L9.55878 14.4801C9.67689 14.4897 9.80491 14.4897 9.93289 14.4897C10.0608 14.4897 10.179 14.4897 10.3069 14.4801L13.9887 3.12461C14.0872 2.8389 14.2939 2.6483 14.54 2.5817C14.7565 2.53402 14.9928 2.5817 15.2093 2.75313Z" fill="#F7654A"/>
</svg>
